<svg width="30" height="30" viewBox="0 0 30 30" fill="none" xmlns="http://www.w3.org/2000/svg">
<g clip-path="url(#clip0_534_241)">
<path d="M6.25 6.8374C7.97589 6.8374 9.375 5.43829 9.375 3.7124C9.375 1.98651 7.97589 0.587402 6.25 0.587402C4.52411 0.587402 3.125 1.98651 3.125 3.7124C3.125 5.43829 4.52411 6.8374 6.25 6.8374Z" stroke="#444444" stroke-width="2" stroke-linecap="round" stroke-linejoin="round"/>
<path d="M15 16.8374H28.75" stroke="#444444" stroke-width="2" stroke-linecap="round" stroke-linejoin="round"/>
<path d="M29.375 7.4624L27.1738 13.5137C27.0863 13.7548 26.9267 13.9632 26.7167 14.1106C26.5068 14.2579 26.2565 14.3371 26 14.3374H20" stroke="#444444" stroke-width="2" stroke-linecap="round" stroke-linejoin="round"/>
<path d="M20.625 16.8374V29.3374" stroke="#444444" stroke-width="2" stroke-linecap="round" stroke-linejoin="round"/>
<path d="M2.5 22.4626L0.625 29.3376" stroke="#444444" stroke-width="2" stroke-linecap="round" stroke-linejoin="round"/>
<path d="M0.625 10.5874L2.5 22.4624H6.25" stroke="#444444" stroke-width="2" stroke-linecap="round" stroke-linejoin="round"/>
<path d="M15.475 29.3376C15.1077 29.3378 14.7483 29.2301 14.4417 29.0279C14.135 28.8257 13.8945 28.5378 13.75 28.2001L11.75 23.5988C11.6055 23.2617 11.3653 22.9744 11.0591 22.7724C10.753 22.5705 10.3943 22.4627 10.0275 22.4626H6.25C5.75272 22.4626 5.27581 22.265 4.92417 21.9134C4.57254 21.5618 4.375 21.0849 4.375 20.5876V10.5876C4.37501 10.2045 4.49239 9.83054 4.71133 9.51614C4.93028 9.20174 5.24028 8.96196 5.59961 8.82906C5.95894 8.69617 6.35037 8.67654 6.72119 8.77282C7.09202 8.8691 7.42445 9.07666 7.67375 9.36758L9.92375 11.9926C10.2174 12.3351 10.5817 12.6101 10.9917 12.7984C11.4017 12.9868 11.8476 13.0842 12.2987 13.0838H15.625C16.1223 13.0838 16.5992 13.2814 16.9508 13.633C17.3025 13.9846 17.5 14.4616 17.5 14.9588C17.5 15.4561 17.3025 15.933 16.9508 16.2847C16.5992 16.6363 16.1223 16.8338 15.625 16.8338H12.3C10.7913 16.8358 9.32402 16.3407 8.125 15.4251V18.7126H10.0275C11.1287 18.7129 12.2055 19.0364 13.1246 19.643C14.0436 20.2496 14.7644 21.1127 15.1975 22.1251L17.1975 26.7263C17.3192 27.0113 17.3683 27.3221 17.3405 27.6307C17.3128 27.9394 17.2089 28.2363 17.0382 28.495C16.8676 28.7537 16.6355 28.9661 16.3627 29.1131C16.0899 29.2601 15.7849 29.3373 15.475 29.3376Z" stroke="#444444" stroke-width="2" stroke-linecap="round" stroke-linejoin="round"/>
<path d="M21.25 8.02368C21.3118 8.02368 21.3722 8.04201 21.4236 8.07635C21.475 8.11069 21.5151 8.15949 21.5387 8.21659C21.5624 8.27369 21.5686 8.33653 21.5565 8.39715C21.5444 8.45777 21.5147 8.51345 21.471 8.55715C21.4273 8.60086 21.3716 8.63062 21.311 8.64268C21.2503 8.65473 21.1875 8.64855 21.1304 8.62489C21.0733 8.60124 21.0245 8.56119 20.9902 8.5098C20.9558 8.45841 20.9375 8.39799 20.9375 8.33618C20.9375 8.2533 20.9704 8.17382 21.029 8.11521C21.0876 8.05661 21.1671 8.02368 21.25 8.02368Z" stroke="#444444" stroke-width="2" stroke-linecap="round" stroke-linejoin="round"/>
<path d="M26.25 2.35634C24.835 1.21166 23.07 0.587158 21.25 0.587158C19.43 0.587158 17.665 1.21166 16.25 2.35634" stroke="#444444" stroke-width="2" stroke-linecap="round" stroke-linejoin="round"/>
<path d="M18.3337 5.37508C19.1592 4.70778 20.1885 4.34375 21.25 4.34375C22.3114 4.34375 23.3408 4.70778 24.1662 5.37508" stroke="#444444" stroke-width="2" stroke-linecap="round" stroke-linejoin="round"/>
</g>
<defs>
<clipPath id="clip0_534_241">
<rect width="30" height="30" fill="white"/>
</clipPath>
</defs>
</svg>
