<svg width="25" height="33" viewBox="0 0 25 33" fill="none" xmlns="http://www.w3.org/2000/svg">
<path fill-rule="evenodd" clip-rule="evenodd" d="M7.01703 13.2161C5.44806 13.7653 4.31686 15.3057 4.31421 17.1192C4.31355 17.4981 4.60959 17.8064 4.97518 17.8064C5.34077 17.807 5.63814 17.5002 5.6388 17.1213C5.64078 15.6056 6.8243 14.3742 8.28334 14.3742C9.74171 14.3742 10.9259 15.6056 10.9279 17.1213C10.9285 17.5002 11.2252 17.807 11.5908 17.8064C11.9564 17.8064 12.2531 17.4981 12.2525 17.1192C12.2498 15.3139 11.1286 13.779 9.57084 13.2237C10.0073 12.8461 10.2855 12.2778 10.2855 11.6428C10.2855 10.5061 9.39467 9.5835 8.29857 9.5835C7.20181 9.5835 6.31169 10.5061 6.31169 11.6428C6.31169 12.2737 6.58522 12.8386 7.01703 13.2161ZM8.29857 10.9564C8.66349 10.9564 8.96086 11.2639 8.96086 11.6428C8.96086 12.0217 8.66349 12.3293 8.29857 12.3293C7.93298 12.3293 7.63628 12.0217 7.63628 11.6428C7.63628 11.2639 7.93298 10.9564 8.29857 10.9564Z" fill="#444444" stroke="#444444"/>
<path fill-rule="evenodd" clip-rule="evenodd" d="M4.9765 21.2716H11.5994C11.965 21.2716 12.2617 20.964 12.2617 20.5851C12.2617 20.2062 11.965 19.8987 11.5994 19.8987H4.9765C4.61092 19.8987 4.31421 20.2062 4.31421 20.5851C4.31421 20.964 4.61092 21.2716 4.9765 21.2716Z" fill="#444444" stroke="#444444"/>
<path fill-rule="evenodd" clip-rule="evenodd" d="M4.9765 24.0133H11.5994C11.965 24.0133 12.2617 23.7057 12.2617 23.3268C12.2617 22.9479 11.965 22.6404 11.5994 22.6404H4.9765C4.61092 22.6404 4.31421 22.9479 4.31421 23.3268C4.31421 23.7057 4.61092 24.0133 4.9765 24.0133Z" fill="#444444" stroke="#444444"/>
<path fill-rule="evenodd" clip-rule="evenodd" d="M23.6649 4.08898C23.6649 2.38283 22.282 1 20.5759 1H4.08898C2.38283 1 1 2.38283 1 4.08898C1 9.39687 1 23.4991 1 28.807C1 30.5131 2.38283 31.896 4.08898 31.896H20.5759C22.282 31.896 23.6649 30.5131 23.6649 28.807V4.08898ZM21.6055 4.08898V28.807C21.6055 29.3753 21.1443 29.8366 20.5759 29.8366H4.08898C3.51958 29.8366 3.05932 29.3753 3.05932 28.807V4.08898C3.05932 3.51958 3.51958 3.05932 4.08898 3.05932H20.5759C21.1443 3.05932 21.6055 3.51958 21.6055 4.08898Z" fill="#444444" stroke="#444444"/>
</svg>
