<svg width="25" height="25" viewBox="0 0 25 25" fill="none" xmlns="http://www.w3.org/2000/svg">
<path d="M22.9241 9.14284L5.42409 0.392836C4.73345 0.0490976 3.95361 -0.0732757 3.19088 0.0424008C2.42815 0.158077 1.71966 0.506174 1.162 1.03923C0.604343 1.57229 0.224655 2.26436 0.0747045 3.0211C-0.0752456 3.77783 0.0118402 4.5624 0.324088 5.26784L3.32409 11.9803C3.39216 12.1426 3.42722 12.3168 3.42722 12.4928C3.42722 12.6688 3.39216 12.843 3.32409 13.0053L0.324088 19.7178C0.0699637 20.2887 -0.0374668 20.9141 0.0115599 21.537C0.0605867 22.16 0.264516 22.7609 0.604816 23.285C0.945116 23.8091 1.411 24.2398 1.96012 24.5381C2.50924 24.8364 3.12419 24.9927 3.74909 24.9928C4.33438 24.987 4.91095 24.8503 5.43659 24.5928L22.9366 15.8428C23.5573 15.5306 24.0791 15.052 24.4437 14.4604C24.8083 13.8689 25.0014 13.1877 25.0014 12.4928C25.0014 11.798 24.8083 11.1168 24.4437 10.5252C24.0791 9.93371 23.5573 9.4551 22.9366 9.14284H22.9241ZM21.8116 13.6053L4.31159 22.3553C4.08179 22.4657 3.82375 22.5031 3.57207 22.4626C3.32039 22.4222 3.0871 22.3057 2.90348 22.1289C2.71986 21.9521 2.59469 21.7234 2.54475 21.4734C2.49481 21.2234 2.5225 20.9641 2.62409 20.7303L5.61159 14.0178C5.65026 13.9282 5.68365 13.8364 5.71159 13.7428H14.3241C14.6556 13.7428 14.9735 13.6111 15.208 13.3767C15.4424 13.1423 15.5741 12.8244 15.5741 12.4928C15.5741 12.1613 15.4424 11.8434 15.208 11.609C14.9735 11.3745 14.6556 11.2428 14.3241 11.2428H5.71159C5.68365 11.1493 5.65026 11.0575 5.61159 10.9678L2.62409 4.25534C2.5225 4.02154 2.49481 3.76227 2.54475 3.5123C2.59469 3.26232 2.71986 3.03359 2.90348 2.85677C3.0871 2.67995 3.32039 2.5635 3.57207 2.52303C3.82375 2.48255 4.08179 2.52 4.31159 2.63034L21.8116 11.3803C22.0163 11.4852 22.1882 11.6446 22.3082 11.8409C22.4281 12.0372 22.4916 12.2628 22.4916 12.4928C22.4916 12.7229 22.4281 12.9485 22.3082 13.1448C22.1882 13.3411 22.0163 13.5004 21.8116 13.6053Z" fill="#444444"/>
</svg>
