<svg width="25" height="25" viewBox="0 0 25 25" fill="none" xmlns="http://www.w3.org/2000/svg">
<path d="M22.8197 6.88249L15.3197 0.95749C14.5277 0.337109 13.5507 0 12.5447 0C11.5387 0 10.5616 0.337109 9.76968 0.95749L2.26968 6.88249C1.73319 7.30035 1.29901 7.83498 1.0001 8.44578C0.701202 9.05658 0.545449 9.72748 0.544678 10.4075V21.7325C0.547052 22.5274 0.863885 23.2891 1.42598 23.8512C1.98808 24.4133 2.74976 24.7301 3.54468 24.7325H7.81968C8.6146 24.7301 9.37628 24.4133 9.93838 23.8512C10.5005 23.2891 10.8173 22.5274 10.8197 21.7325V16.1075H14.9447V21.7325C14.9471 22.5274 15.2639 23.2891 15.826 23.8512C16.3881 24.4133 17.1498 24.7301 17.9447 24.7325H21.5447C22.3396 24.7301 23.1013 24.4133 23.6634 23.8512C24.2255 23.2891 24.5423 22.5274 24.5447 21.7325V10.4075C24.5439 9.72748 24.3882 9.05658 24.0893 8.44578C23.7903 7.83498 23.3562 7.30035 22.8197 6.88249ZM21.5447 21.7325H17.9447V18.92V16.1075C17.9423 15.3126 17.6255 14.5509 17.0634 13.9888C16.5013 13.4267 15.7396 13.1099 14.9447 13.1075H10.8197C10.0248 13.1099 9.26308 13.4267 8.70098 13.9888C8.13889 14.5509 7.82205 15.3126 7.81968 16.1075V18.92V21.7325H3.54468V16.07V10.4075C3.54954 10.1755 3.60589 9.94751 3.70966 9.73998C3.81343 9.53245 3.96201 9.35057 4.14468 9.20749L11.6447 3.28249C12.1697 2.83249 12.9197 2.83249 13.5197 3.28249L21.0197 9.20749C21.2023 9.35057 21.3509 9.53245 21.4547 9.73998C21.5585 9.94751 21.6148 10.1755 21.6197 10.4075V21.7325H21.5447Z" fill="#444444"/>
</svg>
