<svg width="25" height="26" viewBox="0 0 25 26" fill="none" xmlns="http://www.w3.org/2000/svg">
<path d="M17.0575 13.3944C18.283 12.4302 19.1775 11.108 19.6166 9.6118C20.0557 8.11557 20.0174 6.5197 19.5073 5.04621C18.9971 3.57271 18.0404 2.29486 16.7701 1.39044C15.4999 0.486019 13.9794 0 12.42 0C10.8607 0 9.34018 0.486019 8.06995 1.39044C6.79972 2.29486 5.84297 3.57271 5.33281 5.04621C4.82264 6.5197 4.78443 8.11557 5.22349 9.6118C5.66255 11.108 6.55705 12.4302 7.78254 13.3944C5.68264 14.2357 3.8504 15.6311 2.48116 17.4318C1.11191 19.2325 0.256994 21.371 0.0075398 23.6194C-0.010517 23.7835 0.00393547 23.9496 0.0500716 24.1082C0.0962077 24.2668 0.173124 24.4147 0.276429 24.5435C0.485063 24.8037 0.788519 24.9704 1.12004 25.0069C1.45156 25.0433 1.78399 24.9466 2.0442 24.738C2.3044 24.5293 2.47107 24.2259 2.50754 23.8944C2.78202 21.4509 3.94715 19.1941 5.78031 17.5554C7.61348 15.9166 9.98616 15.0107 12.445 15.0107C14.9039 15.0107 17.2766 15.9166 19.1098 17.5554C20.9429 19.1941 22.1081 21.4509 22.3825 23.8944C22.4165 24.2015 22.5631 24.4852 22.7939 24.6906C23.0248 24.8961 23.3235 25.0087 23.6325 25.0069H23.77C24.0977 24.9692 24.3972 24.8035 24.6032 24.5459C24.8093 24.2884 24.9052 23.9598 24.87 23.6319C24.6194 21.3771 23.7599 19.2331 22.3836 17.4296C21.0073 15.6261 19.1662 14.2312 17.0575 13.3944ZM12.42 12.5069C11.4311 12.5069 10.4644 12.2136 9.64219 11.6642C8.81994 11.1148 8.17908 10.3339 7.80064 9.42029C7.4222 8.50666 7.32319 7.50132 7.51611 6.53142C7.70904 5.56151 8.18524 4.6706 8.88451 3.97134C9.58377 3.27207 10.4747 2.79587 11.4446 2.60294C12.4145 2.41002 13.4198 2.50903 14.3335 2.88747C15.2471 3.26591 16.028 3.90677 16.5774 4.72902C17.1268 5.55127 17.42 6.51796 17.42 7.50687C17.42 8.83295 16.8933 10.1047 15.9556 11.0424C15.0179 11.9801 13.7461 12.5069 12.42 12.5069Z" fill="#444444"/>
</svg>
