<svg width="70" height="90" viewBox="0 0 110 90" fill="none" xmlns="http://www.w3.org/2000/svg">
<g clip-path="url(#clip0_451_3994)">
<path d="M25.0014 89.5572V43.4334L11.8213 30.347L0.00244141 23.085V81.4176C0.00244141 85.9213 3.3646 89.5572 7.5023 89.5572H25.0014Z" fill="#4285F4"/>
<path d="M84.9985 89.5572H102.498C106.648 89.5572 109.997 85.9078 109.997 81.4176V23.0854L96.6107 31.4032L84.9985 43.4334V89.5572Z" fill="#34A853"/>
<path d="M25.0014 43.4333L23.208 25.4114L25.0014 8.1626L55 32.581L84.9986 8.1626L87.0047 24.4801L84.9986 43.4333L55 67.8517L25.0014 43.4333Z" fill="#EA4335"/>
<path d="M84.9985 8.16234V43.433L109.997 23.0846V12.2319C109.997 2.16639 99.4105 -3.5717 91.9987 2.46483L84.9985 8.16234Z" fill="#FBBC04"/>
<path d="M0.00244141 23.0848L11.4999 32.4439L25.0014 43.4332V8.16256L18.0012 2.46504C10.5766 -3.57195 0.00244141 2.1666 0.00244141 12.2317V23.0844V23.0848Z" fill="#C5221F"/>
</g>
<defs>
<clipPath id="clip0_451_3994">
<rect width="110" height="90" fill="white"/>
</clipPath>
</defs>
</svg>
