<svg xmlns="http://www.w3.org/2000/svg" viewBox="0 0 500 500"><g id="freepik--background-complete--inject-141"><rect y="382.4" width="500" height="0.25" style="fill:#ebebeb"></rect><rect x="394.67" y="398.49" width="55.23" height="0.25" style="fill:#ebebeb"></rect><rect x="321.81" y="393.25" width="8.69" height="0.25" style="fill:#ebebeb"></rect><rect x="372.47" y="389.21" width="19.19" height="0.25" style="fill:#ebebeb"></rect><rect x="52.46" y="390.89" width="43.19" height="0.25" style="fill:#ebebeb"></rect><rect x="215.33" y="397.35" width="45.72" height="0.25" style="fill:#ebebeb"></rect><rect x="140.46" y="393.12" width="93.68" height="0.25" style="fill:#ebebeb"></rect><path d="M242.72,332.09A5.71,5.71,0,0,1,237,337.8H43.91a5.71,5.71,0,0,1-5.7-5.71V60.66A5.71,5.71,0,0,1,43.91,55H237a5.71,5.71,0,0,1,5.71,5.71m-.25,0A5.47,5.47,0,0,0,237,55.2H43.91a5.46,5.46,0,0,0-5.45,5.46V332.09a5.46,5.46,0,0,0,5.45,5.46H237a5.47,5.47,0,0,0,5.46-5.46" style="fill:#ebebeb"></path><path d="M453.31,337.8H260.21a5.72,5.72,0,0,1-5.71-5.71V60.66A5.72,5.72,0,0,1,260.21,55h193.1A5.71,5.71,0,0,1,459,60.66V332.09A5.71,5.71,0,0,1,453.31,337.8ZM260.21,55.2a5.47,5.47,0,0,0-5.46,5.46V332.09a5.47,5.47,0,0,0,5.46,5.46h193.1a5.47,5.47,0,0,0,5.46-5.46V60.66a5.47,5.47,0,0,0-5.46-5.46Z" style="fill:#ebebeb"></path><rect x="70.67" y="256.03" width="60.15" height="126.37" transform="translate(201.48 638.43) rotate(180)" style="fill:#e6e6e6"></rect><polygon points="76.72 382.4 70.67 382.4 70.67 365.19 83.06 365.19 76.72 382.4" style="fill:#f0f0f0"></polygon><rect x="229.71" y="256.03" width="60.15" height="126.37" transform="translate(519.57 638.43) rotate(180)" style="fill:#e6e6e6"></rect><rect x="70.67" y="256.03" width="164.32" height="115.81" transform="translate(305.65 627.87) rotate(180)" style="fill:#f0f0f0"></rect><rect x="75.36" y="261.17" width="154.94" height="31.76" transform="translate(305.65 554.09) rotate(180)" style="fill:#e6e6e6"></rect><path d="M141.86,271H163.8A34.71,34.71,0,0,0,189,260.2H116.67A34.67,34.67,0,0,0,141.86,271Z" style="fill:#f0f0f0"></path><polygon points="228.94 382.4 234.99 382.4 234.99 365.19 222.59 365.19 228.94 382.4" style="fill:#f0f0f0"></polygon><rect x="75.36" y="298.06" width="154.94" height="31.76" transform="translate(305.65 627.87) rotate(180)" style="fill:#e6e6e6"></rect><path d="M141.86,307.93H163.8A34.72,34.72,0,0,0,189,297.09H116.67A34.68,34.68,0,0,0,141.86,307.93Z" style="fill:#f0f0f0"></path><rect x="75.36" y="334.95" width="154.94" height="31.76" transform="translate(305.65 701.65) rotate(180)" style="fill:#e6e6e6"></rect><path d="M141.86,344.82H163.8A34.72,34.72,0,0,0,189,334H116.67A34.68,34.68,0,0,0,141.86,344.82Z" style="fill:#f0f0f0"></path><rect x="83.26" y="214.51" width="5.47" height="41.52" rx="0.59" style="fill:#ebebeb"></rect><rect x="83.26" y="218.79" width="5.47" height="15.11" style="fill:#fafafa"></rect><rect x="83.26" y="238.56" width="5.47" height="9.32" style="fill:#fafafa"></rect><rect x="88.73" y="214.51" width="23.31" height="41.52" rx="0.59" style="fill:#e0e0e0"></rect><rect x="91.48" y="210.23" width="6.04" height="45.8" rx="0.65" style="fill:#ebebeb"></rect><rect x="91.47" y="216.22" width="6.04" height="4.09" style="fill:#fafafa"></rect><rect x="91.47" y="228.08" width="6.04" height="4.09" style="fill:#fafafa"></rect><rect x="91.47" y="239.95" width="6.04" height="4.09" style="fill:#fafafa"></rect><rect x="97.56" y="210.23" width="25.71" height="45.8" rx="0.65" style="fill:#e0e0e0"></rect><rect x="100.26" y="214.51" width="5.47" height="41.52" rx="0.59" style="fill:#ebebeb"></rect><rect x="100.26" y="222.67" width="5.47" height="7.75" style="fill:#fafafa"></rect><rect x="100.26" y="232.81" width="5.47" height="4.78" style="fill:#fafafa"></rect><rect x="105.74" y="214.51" width="23.31" height="41.52" rx="0.59" style="fill:#e0e0e0"></rect><rect x="107.8" y="220.31" width="6.04" height="35.73" rx="0.65" style="fill:#ebebeb"></rect><rect x="107.79" y="228.34" width="6.04" height="6.61" style="fill:#fafafa"></rect><rect x="107.79" y="250.02" width="6.04" height="1.57" style="fill:#fafafa"></rect><rect x="107.79" y="236.42" width="6.04" height="6.61" style="fill:#fafafa"></rect><rect x="113.88" y="220.31" width="25.71" height="35.73" rx="0.65" style="fill:#e0e0e0"></rect><rect x="116.33" y="213.34" width="5.47" height="42.7" rx="0.6" style="fill:#ebebeb"></rect><rect x="116.33" y="217.74" width="5.47" height="15.54" style="fill:#fafafa"></rect><rect x="116.33" y="238.06" width="5.47" height="9.58" style="fill:#fafafa"></rect><rect x="121.8" y="213.34" width="23.31" height="42.7" rx="0.6" style="fill:#e0e0e0"></rect><rect x="124.54" y="217.85" width="6.04" height="38.18" rx="0.6" style="fill:#ebebeb"></rect><rect x="124.54" y="222.84" width="6.04" height="3.41" style="fill:#fafafa"></rect><rect x="124.54" y="232.73" width="6.04" height="3.41" style="fill:#fafafa"></rect><rect x="124.54" y="242.62" width="6.04" height="3.41" style="fill:#fafafa"></rect><rect x="130.63" y="217.85" width="25.71" height="38.18" rx="0.6" style="fill:#e0e0e0"></rect><rect x="133.33" y="214.51" width="5.47" height="41.52" rx="0.59" style="fill:#ebebeb"></rect><rect x="133.33" y="222.67" width="5.47" height="7.75" style="fill:#fafafa"></rect><rect x="133.33" y="232.81" width="5.47" height="4.78" style="fill:#fafafa"></rect><rect x="138.8" y="214.51" width="23.31" height="41.52" rx="0.59" style="fill:#e0e0e0"></rect><rect x="140.87" y="220.31" width="6.04" height="35.73" rx="0.65" style="fill:#ebebeb"></rect><rect x="140.86" y="228.34" width="6.04" height="6.61" style="fill:#fafafa"></rect><rect x="140.86" y="250.02" width="6.04" height="1.57" style="fill:#fafafa"></rect><rect x="140.86" y="236.42" width="6.04" height="6.61" style="fill:#fafafa"></rect><rect x="146.95" y="220.31" width="25.71" height="35.73" rx="0.65" style="fill:#e0e0e0"></rect><rect x="69.45" y="100.49" width="218.79" height="65.87" transform="translate(357.69 266.84) rotate(180)" style="fill:#e6e6e6"></rect><rect x="64.81" y="100.49" width="221.26" height="65.87" transform="translate(350.88 266.84) rotate(180)" style="fill:#f0f0f0"></rect><rect x="69.45" y="166.36" width="218.79" height="8.62" transform="translate(357.69 341.34) rotate(180)" style="fill:#e6e6e6"></rect><rect x="57.08" y="166.36" width="221.26" height="8.62" transform="translate(335.42 341.34) rotate(180)" style="fill:#f0f0f0"></rect><rect x="149" y="29.29" width="52.88" height="208.27" transform="translate(308.86 -42.02) rotate(90)" style="fill:#fafafa"></rect><polygon points="224.46 159.86 186.33 106.98 147.31 106.98 185.44 159.86 224.46 159.86" style="fill:#fff"></polygon><path d="M276.56,154.79a.47.47,0,0,0,.47-.47V111.21a.47.47,0,0,0-.93,0v43.11A.47.47,0,0,0,276.56,154.79Z" style="fill:#f0f0f0"></path><polygon points="170.77 159.86 132.63 106.98 119.13 106.98 157.26 159.86 170.77 159.86" style="fill:#fff"></polygon><rect x="45.28" y="133.01" width="52.88" height="0.83" transform="translate(205.14 61.7) rotate(90)" style="fill:#e6e6e6"></rect><polygon points="63.27 113.53 282.06 113.53 282.66 109.51 63.87 109.51 63.27 113.53" style="fill:#e6e6e6;opacity:0.4"></polygon><polygon points="63.27 120.17 282.06 120.17 282.66 116.15 63.87 116.15 63.27 120.17" style="fill:#e6e6e6;opacity:0.4"></polygon><polygon points="63.27 126.82 282.06 126.82 282.66 122.8 63.87 122.8 63.27 126.82" style="fill:#e6e6e6;opacity:0.4"></polygon><polygon points="63.27 133.46 282.06 133.46 282.66 129.44 63.87 129.44 63.27 133.46" style="fill:#e6e6e6;opacity:0.4"></polygon><polygon points="63.27 140.11 282.06 140.11 282.66 136.08 63.87 136.08 63.27 140.11" style="fill:#e6e6e6;opacity:0.4"></polygon><polygon points="63.27 146.75 282.06 146.75 282.66 142.73 63.87 142.73 63.27 146.75" style="fill:#e6e6e6;opacity:0.4"></polygon><rect x="323.7" y="100.49" width="84.41" height="149.58" transform="translate(731.81 350.55) rotate(180)" style="fill:#e6e6e6"></rect><path d="M334.11,104.58a.68.68,0,0,0,.36-.1c.2-.12,20.06-11.93,26.32-11.93s25.19,11.8,25.38,11.92a.7.7,0,0,0,1-.22.72.72,0,0,0-.22-1c-.8-.49-19.48-12.13-26.13-12.13s-26.21,11.63-27,12.13a.7.7,0,0,0,.36,1.3Z" style="fill:#f0f0f0"></path><rect x="314.56" y="100.49" width="87.19" height="149.58" transform="translate(716.3 350.55) rotate(180)" style="fill:#f0f0f0"></rect><rect x="290.67" y="138.98" width="134.97" height="72.58" transform="translate(533.43 -182.88) rotate(90)" style="fill:#fff"></rect><rect x="364.52" y="319.37" width="52.6" height="63.03" style="fill:#e0e0e0"></rect><polygon points="417.11 319.37 364.51 319.37 375.07 300.57 427.67 300.57 417.11 319.37" style="fill:#e0e0e0"></polygon><polygon points="313.24 300.57 260.64 300.57 271.2 319.37 323.8 319.37 313.24 300.57" style="fill:#f5f5f5"></polygon><rect x="271.2" y="319.37" width="93.32" height="63.03" transform="translate(635.71 701.77) rotate(180)" style="fill:#f5f5f5"></rect><rect x="335.16" y="336.2" width="29.36" height="29.36" transform="translate(699.67 701.77) rotate(180)" style="fill:#f0f0f0"></rect><rect x="283.77" y="336.2" width="16.89" height="16.89" transform="translate(584.44 689.3) rotate(180)" style="fill:#f0f0f0"></rect><rect x="283.77" y="357.12" width="16.89" height="16.89" transform="translate(584.44 731.13) rotate(180)" style="fill:#f0f0f0"></rect><rect x="364.52" y="336.2" width="15.15" height="29.36" style="fill:#e6e6e6"></rect></g><g id="freepik--Shadow--inject-141"><ellipse id="freepik--path--inject-141" cx="250" cy="416.24" rx="193.89" ry="11.32" style="fill:#f5f5f5"></ellipse></g><g id="freepik--Icons--inject-141"><circle cx="162.43" cy="134.18" r="15.01" transform="translate(-47.39 115.16) rotate(-34.38)" style="fill:#407BFF"></circle><path d="M161,132.88l-8.4-3.58a1.11,1.11,0,0,1,.6-.17h18.57a1.13,1.13,0,0,1,.6.17l-8.4,3.58A3.83,3.83,0,0,1,161,132.88Z" style="fill:#fff"></path><path d="M172.93,130.64v8.15a1.21,1.21,0,0,1-1.21,1.21H153.15a1.21,1.21,0,0,1-1.21-1.21v-8.15a.66.66,0,0,1,0-.15l8.59,3.65a5,5,0,0,0,1.89.39,5.06,5.06,0,0,0,1.91-.39l8.58-3.65A.66.66,0,0,1,172.93,130.64Z" style="fill:#fff"></path><circle cx="234.82" cy="65.25" r="15.01" transform="translate(105.57 271.87) rotate(-73.5)" style="fill:#407BFF"></circle><path d="M242,58.42H227.69A2.74,2.74,0,0,0,225,61.14v7.37a2.74,2.74,0,0,0,2.73,2.73h10.47l-.08,2.58,2.65-2.58H242a2.75,2.75,0,0,0,2.73-2.73V61.14A2.74,2.74,0,0,0,242,58.42Zm-14.59,3.14a.77.77,0,0,1,.76-.77h3.28a.77.77,0,0,1,.76.77.76.76,0,0,1-.76.75h-3.28A.76.76,0,0,1,227.37,61.56Zm13.78,7.12h-5.68a.75.75,0,1,1,0-1.5h5.68a.75.75,0,1,1,0,1.5Zm0-3.18H228.89a.76.76,0,0,1-.75-.76.75.75,0,0,1,.75-.75h12.26a.75.75,0,0,1,.75.75A.76.76,0,0,1,241.15,65.5Zm0-3.19h-7.26a.75.75,0,0,1-.75-.75.76.76,0,0,1,.75-.77h7.26a.77.77,0,0,1,.75.77A.76.76,0,0,1,241.15,62.31Z" style="fill:#fff"></path><circle cx="187.94" cy="87.62" r="15.01" transform="translate(19.88 209.08) rotate(-60.85)" style="fill:#407BFF"></circle><path d="M194.43,81.27h-13a2.37,2.37,0,0,0-2.37,2.36v8A2.37,2.37,0,0,0,181.45,94h13a2.37,2.37,0,0,0,2.37-2.36v-8A2.37,2.37,0,0,0,194.43,81.27ZM185.87,91V84.29l5.78,3.33Z" style="fill:#fff"></path><circle cx="287.92" cy="75.2" r="15.01" transform="translate(-4.58 129.93) rotate(-25.24)" style="fill:#407BFF"></circle><path d="M294.56,77.1a6,6,0,1,0-9-.52c-.41.32-.8.65-1.19,1-.57.48-1.12,1-1.66,1.46s-1.08,1-1.61,1.52l-.79.78a1.45,1.45,0,0,0-.33.44,1,1,0,0,0-.1.3,1,1,0,0,0,0,.36.91.91,0,0,0,.85.85,1.45,1.45,0,0,0,.37,0l.29-.1a1.37,1.37,0,0,0,.44-.34c.26-.26.53-.52.78-.79.52-.52,1-1.06,1.52-1.6s1-1.1,1.46-1.67c.34-.39.66-.78,1-1.19A6,6,0,0,0,294.56,77.1Zm-7.64-.9a4.77,4.77,0,1,1,6.74,0A4.77,4.77,0,0,1,286.92,76.2Z" style="fill:#fff"></path><circle cx="323.51" cy="113.04" r="15.01" transform="translate(-7.32 202.42) rotate(-34.38)" style="fill:#407BFF"></circle><path d="M333.13,113s0,0,0-.06a10.67,10.67,0,0,0-.12-1.48,9.61,9.61,0,0,0-9.28-8.07h-.48a9.07,9.07,0,0,0-1.27.11A9.63,9.63,0,0,0,313.9,113s0,0,0,.05,0,0,0,.06a10.64,10.64,0,0,0,.11,1.48,9.64,9.64,0,0,0,9.47,8.08h0a9.83,9.83,0,0,0,1.52-.12,9.64,9.64,0,0,0,8.07-9.44S333.13,113.06,333.13,113Zm-2.53,3.8h-1.68a15.15,15.15,0,0,0,.45-3h2.15A7.82,7.82,0,0,1,330.6,116.84Zm-14.18-7.6h1.68a15.26,15.26,0,0,0-.45,3H315.5A7.93,7.93,0,0,1,316.42,109.24Zm11.34,2.46c0,.19,0,.37,0,.56h-3.51v-3h3A13.24,13.24,0,0,1,327.76,111.7Zm-3.47-4v-2.55a3.32,3.32,0,0,1,.65.33,5.68,5.68,0,0,1,1.75,2.22Zm-1.56-2.54v2.54h-2.41A4.7,4.7,0,0,1,322.73,105.14Zm0,4.1v3h-3.51a13.61,13.61,0,0,1,.51-3Zm-7.17,5.09c0-.17,0-.34-.06-.51h2.16c0,.24,0,.47,0,.71a15,15,0,0,0,.4,2.31h-1.69A7.76,7.76,0,0,1,315.56,114.33Zm3.7.06c0-.19,0-.38,0-.57h3.51v3h-3A13.13,13.13,0,0,1,319.26,114.39Zm3.47,4V121a2.85,2.85,0,0,1-.65-.33,5.68,5.68,0,0,1-1.75-2.22Zm1.56,2.55V118.4h2.41A4.76,4.76,0,0,1,324.29,121Zm0-4.11v-3h3.51a13.51,13.51,0,0,1-.51,3Zm5.07-4.58c0-.23,0-.47,0-.71a16.35,16.35,0,0,0-.4-2.31h1.69a8.1,8.1,0,0,1,.85,2.51c0,.17,0,.34.06.51Zm.16-4.58H328.4a9.59,9.59,0,0,0-.79-1.57,7.07,7.07,0,0,1,.61.4A8,8,0,0,1,329.52,107.68Zm-10.12-1.56a9.9,9.9,0,0,0-.79,1.56H317.5A8.16,8.16,0,0,1,319.4,106.12Zm-1.89,12.28h1.11a10.15,10.15,0,0,0,.8,1.58A7.85,7.85,0,0,1,317.51,118.4ZM327.62,120a10,10,0,0,0,.79-1.57h1.11A8.46,8.46,0,0,1,327.62,120Z" style="fill:#fff"></path><circle cx="330.41" cy="165.68" r="15.01" transform="translate(-35.84 215.51) rotate(-34.38)" style="fill:#407BFF"></circle><path d="M330.41,156.66a8,8,0,0,0-1.82,15.73l1.82,2.32,1.82-2.32h0a8,8,0,0,0-1.82-15.73Zm0,11.29a3.32,3.32,0,1,1,3.33-3.32A3.32,3.32,0,0,1,330.41,168Z" style="fill:#fff"></path></g><g id="freepik--Character--inject-141"><polygon points="241.03 407.62 233.32 407.62 232.99 389.76 240.7 389.76 241.03 407.62" style="fill:#b55b52"></polygon><polygon points="287.34 407.62 279.63 407.62 276.19 389.76 283.9 389.76 287.34 407.62" style="fill:#b55b52"></polygon><path d="M279.1,406.73h8.67a.65.65,0,0,1,.64.53l1.36,6.85a1.17,1.17,0,0,1-1.16,1.38c-3-.06-4.49-.23-8.3-.23-2.35,0-7.18.24-10.42.24s-3.58-3.2-2.25-3.49c6-1.3,8.26-3.09,10.2-4.8A1.9,1.9,0,0,1,279.1,406.73Z" style="fill:#263238"></path><path d="M233.39,406.73h8.43a.65.65,0,0,1,.64.53l1.35,6.85a1.15,1.15,0,0,1-1.14,1.38c-3-.06-7.42-.23-11.24-.23-4.47,0-8.33.24-13.57.24-3.16,0-4-3.2-2.63-3.49,6.07-1.32,11-1.46,16.29-4.68A3.63,3.63,0,0,1,233.39,406.73Z" style="fill:#263238"></path><path d="M233.16,165.55l-8.23-7.38s-20.21,18.56-24.17,18.5c-5.4-.09-16.62-.65-22.88-2-1.12.68-3.42,3.27-3.65,4.43,7.17,5.67,25.85,9.73,30.54,8.15C215.45,183.67,233.16,165.55,233.16,165.55Z" style="fill:#b55b52"></path><path d="M237.78,161.27c-.06,7.37-19.65,22.08-19.65,22.08l-11.39-13.08a98.09,98.09,0,0,1,14.81-14C229.57,150.44,237.84,153.18,237.78,161.27Z" style="fill:#263238"></path><path d="M218.13,183.35s18.09-13.58,19.55-21.18C235.37,159.8,223,166.58,218.13,183.35Z" style="opacity:0.2"></path><path d="M179.11,175.07l-6.83-6.29-6.13,7.86a34.25,34.25,0,0,0,9.8,3.53Z" style="fill:#b55b52"></path><polygon points="164.14 165.08 162.03 171.01 166.15 176.64 172.28 168.78 164.14 165.08" style="fill:#b55b52"></polygon><polygon points="232.99 389.77 233.16 398.97 240.88 398.97 240.71 389.77 232.99 389.77" style="opacity:0.2"></polygon><polygon points="283.91 389.77 276.19 389.77 277.97 398.97 285.68 398.97 283.91 389.77" style="opacity:0.2"></polygon><path d="M227.78,153.49s-9.68,23.3-2.09,66.67h41.25c.44-6.33-2.78-37.22,4.06-67.06a107.14,107.14,0,0,0-13.77-1.75,152.9,152.9,0,0,0-17.53,0A78.77,78.77,0,0,0,227.78,153.49Z" style="fill:#263238"></path><path d="M261.86,160.46c-.81,4.92.45,16.66,4.8,30.24a197.69,197.69,0,0,1,3.69-34.63V156C267.64,155.73,262.63,155.86,261.86,160.46Z" style="opacity:0.2"></path><path d="M255.34,135c-1.24,5.64-2,12.64,1.89,16.4,0,0-2.4,5.73-12.89,5.73-9.58,0-4.64-5.73-4.64-5.73,6.32-1.5,6.19-9.28,5.2-13.66Z" style="fill:#b55b52"></path><path d="M243.84,156.62l-2.27,2.52a.67.67,0,0,0-.14.65l.73,2.21a.62.62,0,0,0,.58.44l2.44.12a.69.69,0,0,0,.6-.3l1.46-2.14a.67.67,0,0,0,0-.81l-2.37-2.69A.67.67,0,0,0,243.84,156.62Z" style="fill:#407BFF"></path><path d="M244.35,156.07a13.36,13.36,0,0,1,1.87,6.43s13.24-4.64,12.8-11.42c0,0-1.84-1.11-3-2C256,149.07,255.47,153.35,244.35,156.07Z" style="fill:#fff"></path><path d="M244.35,156.07a18.9,18.9,0,0,0-2.71,6s-5.85-4-3.9-10.74a22.75,22.75,0,0,1,3.39-1.06S240.24,154.62,244.35,156.07Z" style="fill:#fff"></path><path d="M243.27,162.09s-3.75,27.61-3.83,32.41a46.66,46.66,0,0,0,2.12,13.4s2.57-4.88,3-13.6-.09-27.32.1-32.21Z" style="fill:#407BFF"></path><path d="M244.89,137.69c.59,2.57.88,6.31-.27,9.26a10.14,10.14,0,0,0,2.84-.86c3.59-1.67,5.4-4.3,7.31-8.21.17-1,.36-2,.57-2.93Z" style="opacity:0.2"></path><path d="M236.41,130.25a7,7,0,0,0,3,4.58c2.12,1.38,4-.36,4.07-2.78.07-2.18-.93-5.52-3.38-5.92A3.35,3.35,0,0,0,236.41,130.25Z" style="fill:#b55b52"></path><path d="M236.41,130.25a7,7,0,0,0,3,4.58c2.12,1.38,4-.36,4.07-2.78.07-2.18-.93-5.52-3.38-5.92A3.35,3.35,0,0,0,236.41,130.25Z" style="opacity:0.2"></path><path d="M246.75,115.5c-4.13.19-10,9.46-6.36,13.44S254.55,115.14,246.75,115.5Z" style="fill:#263238"></path><path d="M260.77,130.26c-3.26,7-4.82,11.26-9.85,13.61-7.58,3.52-15-3-13.93-10.82,1-7,6.17-17.28,14.24-17.54A10.21,10.21,0,0,1,260.77,130.26Z" style="fill:#b55b52"></path><path d="M266.22,121.26c4,2.58-1.67,14-6.81,13.69-2.27-.14-1.85-5.68.42-10.45-4.14-.18-17.78-3.2-17.33-9.65.14-2.08,2.27-3.34,5.32-4.92a3.62,3.62,0,0,0,2.05-4.41,4.9,4.9,0,0,1,1.15,5.23c-1.16,3.16,5.17,1.91,8.82,1.82C266.36,112.39,270.1,117.26,266.22,121.26Z" style="fill:#263238"></path><path d="M265.32,121.26s3.21-1.21,4.3,1.6A9.59,9.59,0,0,0,265.32,121.26Z" style="fill:#263238"></path><path d="M260.86,139.36a7.4,7.4,0,0,1-5.4,1.44c-2.52-.35-2.71-2.85-1.11-4.71,1.43-1.67,4.48-3.5,6.57-2.21S262.76,137.9,260.86,139.36Z" style="fill:#b55b52"></path><path d="M225.69,220.16s-2.48,57.67-2.22,81.19c.28,24.47,6.86,95.84,6.86,95.84H243.4s2.4-69.94,3.57-94c1.28-26.19,5.84-83.06,5.84-83.06Z" style="fill:#407BFF"></path><path d="M244.36,393.19c.06,0-.11,4.27-.11,4.27H229.19l-.52-4.8Z" style="fill:#263238"></path><path d="M243.36,235.43c-.45,28.61.85,46,4,60,.79-13.65,2.08-31.7,3.21-46.69Z" style="opacity:0.2"></path><path d="M240.32,220.16s7.31,59,11.58,81c4.66,24.18,22.52,96,22.52,96h14.12S277.4,327.33,275,303.38c-2.62-26-8-83.22-8-83.22Z" style="fill:#407BFF"></path><path d="M288.63,393.51c.06,0,.61,3.95.61,3.95H273.71l-1.26-4.54Z" style="fill:#263238"></path><path d="M283.05,388.84a.12.12,0,0,1-.12-.11c-.1-.71-10.16-62.94-12.33-84.45-2.35-23.34-7.25-75.1-7.3-75.62a.13.13,0,0,1,.12-.15.13.13,0,0,1,.14.12c.05.52,4.95,52.27,7.3,75.62,2.17,21.5,12.23,83.73,12.33,84.44a.13.13,0,0,1-.11.15Z" style="opacity:0.2"></path><path d="M249.2,128.25c-.23.59-.72.94-1.1.8s-.49-.72-.26-1.31.72-.94,1.1-.8S249.43,127.67,249.2,128.25Z" style="fill:#263238"></path><path d="M242.67,125.82c-.23.58-.73.94-1.1.8s-.5-.73-.27-1.31.72-1,1.1-.81S242.9,125.23,242.67,125.82Z" style="fill:#263238"></path><path d="M244.63,126.88a22.89,22.89,0,0,1-4.73,4,3.5,3.5,0,0,0,2.56,1.56Z" style="fill:#a02724"></path><path d="M243.51,134.63a.17.17,0,0,1-.1-.23.2.2,0,0,1,.24-.11,5,5,0,0,0,4.44-.41.19.19,0,0,1,.26,0,.19.19,0,0,1,0,.26A5.25,5.25,0,0,1,243.51,134.63Z" style="fill:#263238"></path><path d="M252,126.86a.4.4,0,0,1-.22-.24,2.78,2.78,0,0,0-1.72-2,.37.37,0,0,1-.24-.46.39.39,0,0,1,.46-.25,3.5,3.5,0,0,1,2.21,2.45.37.37,0,0,1-.26.45A.36.36,0,0,1,252,126.86Z" style="fill:#263238"></path><path d="M240.65,122.38a.35.35,0,0,1-.07-.61,3.69,3.69,0,0,1,3.25-.82.36.36,0,0,1,.24.46.38.38,0,0,1-.46.24h0a3,3,0,0,0-2.57.68A.37.37,0,0,1,240.65,122.38Z" style="fill:#263238"></path><path d="M264.26,165.79,275,162.3s9.86,25.14,13.52,26.59c5,2,15.07,7.28,21.35,8.54.72,1.06,1.68,4.32,1.38,5.47-9,2.34-27.32-2.59-30.93-5.83C272.07,189.69,264.26,165.79,264.26,165.79Z" style="fill:#b55b52"></path><path d="M271,153.1c7.27,1.06,15,26.35,15,26.35l-15.54,8.65s-6.45-12-9.56-21C257.65,157.79,263.2,152,271,153.1Z" style="fill:#263238"></path><path d="M276.52,408.08a2.29,2.29,0,0,1-1.47-.39,1.06,1.06,0,0,1-.36-1,.61.61,0,0,1,.33-.52c.85-.43,3.31,1.09,3.59,1.27a.18.18,0,0,1,.08.18.2.2,0,0,1-.14.15A9.21,9.21,0,0,1,276.52,408.08Zm-1.11-1.6a.52.52,0,0,0-.23,0c-.05,0-.11.07-.12.21a.71.71,0,0,0,.23.67,3.69,3.69,0,0,0,2.73.13A7.28,7.28,0,0,0,275.41,406.48Z" style="fill:#407BFF"></path><path d="M278.5,407.81l-.08,0c-.79-.44-2.29-2.13-2.11-3a.63.63,0,0,1,.59-.48,1,1,0,0,1,.78.24c.87.73,1,3,1,3.05a.2.2,0,0,1-.09.17A.17.17,0,0,1,278.5,407.81ZM277,404.68h-.08c-.24,0-.26.13-.27.18-.11.51.84,1.78,1.62,2.39a4.3,4.3,0,0,0-.85-2.42A.63.63,0,0,0,277,404.68Z" style="fill:#407BFF"></path><path d="M230.15,408.08a2.9,2.9,0,0,1-1.86-.47,1,1,0,0,1-.32-.89.6.6,0,0,1,.31-.49c.95-.53,4,1,4.36,1.23a.18.18,0,0,1,.09.19.17.17,0,0,1-.15.15A13.1,13.1,0,0,1,230.15,408.08Zm-1.36-1.6a.69.69,0,0,0-.34.07.23.23,0,0,0-.12.19.68.68,0,0,0,.21.59c.46.42,1.73.5,3.44.21A9.8,9.8,0,0,0,228.79,406.48Z" style="fill:#407BFF"></path><path d="M232.55,407.81l-.08,0c-.92-.42-2.72-2.08-2.56-3,0-.2.19-.46.69-.51a1.3,1.3,0,0,1,1,.32c1,.8,1.12,2.88,1.12,3a.16.16,0,0,1-.08.16A.14.14,0,0,1,232.55,407.81Zm-1.81-3.13h-.11c-.33,0-.35.16-.36.2-.1.52,1.12,1.83,2.06,2.41a4.16,4.16,0,0,0-1-2.38A1,1,0,0,0,230.74,404.68Z" style="fill:#407BFF"></path><path d="M310.54,203.07l7.34.35-3.9-8s-6.43-.1-7.49,4.85Z" style="fill:#b55b52"></path><polygon points="323.83 199.55 319.94 192.48 313.98 195.42 317.88 203.42 323.83 199.55" style="fill:#b55b52"></polygon></g></svg>