<svg xmlns="http://www.w3.org/2000/svg" xmlns:xlink="http://www.w3.org/1999/xlink" viewBox="0 0 500 500"><defs><clipPath id="freepik--clip-path--inject-84"><path d="M400.76,226.06l.33.21c2.81,1.78,19.94,12.22,20.62,12.67s13.53,45.32,14.27,53.15l1,3.42-.7,1.91a.94.94,0,0,1-1.79-.07L418.61,240Z" style="fill:#407BFF;stroke:#263238;stroke-linecap:round;stroke-linejoin:round"></path></clipPath><clipPath id="freepik--clip-path-2--inject-84"><path d="M400.76,226.06s-10.52,9.05-8.31,25.68l10,29.59s-5.62,23.23-4.64,23.48,27.87,5.38,30.07-3.92,2.21-27.87,1-34.72S414.7,235,414.33,234.74C414.45,234.74,399.82,226.15,400.76,226.06Z" style="fill:#407BFF;stroke:#263238;stroke-linecap:round;stroke-linejoin:round"></path></clipPath><clipPath id="freepik--clip-path-3--inject-84"><path d="M440.38,265c-.62,2-4.85,4.81-7.92,6.63a6,6,0,0,1-6.22,0l-12-7.33s-17.12-12-17.12-21.27,7.34-9.79,7.34-9.79,4.65-.49,7.82,5.38c1.59,2.93,5.55,7.5,9,11.34,3.25,3.62,6,6.61,6,7-.18,0-.21,0-.05,0s.05,0,.05,0a43.14,43.14,0,0,1,6.83-.07,4.29,4.29,0,0,1,.7.11C437,257.36,441.36,261.77,440.38,265Z" style="fill:#407BFF;stroke:#263238;stroke-linecap:round;stroke-linejoin:round"></path></clipPath></defs><g id="freepik--background-simple--inject-84"><g style="opacity:0.7000000000000001"><path d="M336.17,73.08a221.75,221.75,0,0,1,57.21,38.23q3.36,3,6.53,6.17a223.63,223.63,0,0,1,18.53,20.67A217.54,217.54,0,0,1,437,165.65a202.64,202.64,0,0,1,18.53,43.47,149.46,149.46,0,0,1,5.78,30.51c7.45,103.93-36,126.07-51.72,136.73-24.23,16.39-163.45,16-194.35,15.17s-62.18.06-92.29-7.6S9.65,337.86,53.85,204.59a209.81,209.81,0,0,1,10.69-23.93C130.6,38.93,262,39.17,336.17,73.08Z" style="fill:#407BFF"></path></g><g style="opacity:0.7000000000000001"><path d="M336.17,73.08a221.75,221.75,0,0,1,57.21,38.23q3.36,3,6.53,6.17a223.63,223.63,0,0,1,18.53,20.67A217.54,217.54,0,0,1,437,165.65a202.64,202.64,0,0,1,18.53,43.47,149.46,149.46,0,0,1,5.78,30.51c7.45,103.93-36,126.07-51.72,136.73-24.23,16.39-163.45,16-194.35,15.17s-62.18.06-92.29-7.6S9.65,337.86,53.85,204.59a209.81,209.81,0,0,1,10.69-23.93C130.6,38.93,262,39.17,336.17,73.08Z" style="fill:#fff"></path></g></g><g id="freepik--Shadow--inject-84"><ellipse cx="254.17" cy="421.27" rx="146.85" ry="21.39" style="fill:#407BFF"></ellipse><ellipse cx="254.17" cy="421.27" rx="146.85" ry="21.39" style="fill:#fff;opacity:0.6000000000000001"></ellipse></g><g id="freepik--Stage--inject-84"><path d="M70.81,191c-2.72,15.44-4.74,31.23-6.39,47-3.15,30-6.82,59.85-12.67,88.13h0" style="fill:none;stroke:#263238;stroke-miterlimit:10"></path><path d="M77.69,159c-2.12,8.16-4,16.52-5.59,25" style="fill:none;stroke:#263238;stroke-miterlimit:10"></path><path d="M78.33,308.87c5.79-53.22,10.79-125.23,27.09-192" style="fill:none;stroke:#263238;stroke-miterlimit:10"></path><path d="M76.93,319.87q.41-3.11.79-6.2" style="fill:none;stroke:#263238;stroke-miterlimit:10"></path><path d="M71.19,354.19c2-9.67,3.61-19.22,5-28.72" style="fill:none;stroke:#263238;stroke-miterlimit:10"></path><path d="M51.63,211.55v0c-2.54,25-5.29,49.73-10.13,72.86h0" style="fill:none;stroke:#263238;stroke-miterlimit:10"></path><path d="M93.05,371.32c.3-1.92.6-3.83.88-5.76q.33-2.13.63-4.26c5.87-40.74,8.69-82.92,12.37-124.48l.24-2.64c1.21-13.52,2.55-27.11,4.13-40.62,3-25.49,6.87-50.71,12.42-74.71.22-1,.46-2,.7-3q1-4,2-8h0l1.22-4.37.85-3,2.28-8.14.83-3" style="fill:none;stroke:#263238;stroke-miterlimit:10"></path><path d="M422.93,150.68q-1.6-5.64-3.4-11.14h0" style="fill:none;stroke:#263238;stroke-miterlimit:10"></path><path d="M431.89,190.68c-2-11.37-4.33-22.56-7.16-33.39" style="fill:none;stroke:#263238;stroke-miterlimit:10"></path><path d="M451.45,328.07h0c-6.23-29.2-10.06-60.15-13.32-91.26-1.4-13.38-3.08-26.79-5.22-40" style="fill:none;stroke:#263238;stroke-miterlimit:10"></path><path d="M397.59,115.23h0a596.23,596.23,0,0,1,15.07,74.46c.13.89.25,1.78.37,2.66.38,2.79.74,5.55,1.08,8.3.63,5,1.19,10,1.72,14.91.08.77.16,1.55.25,2.32,0,.32.06.64.1,1v.09a1.23,1.23,0,0,1,0,.19c0,.25.05.51.08.76.17,1.67.34,3.33.5,5h0c.07.78.15,1.55.22,2.33.18,1.8.35,3.6.51,5.39l0,.32c0,.61.11,1.22.16,1.82,0,.27.05.53.07.8.2,2.13.38,4.25.57,6.36.65,7.59,1.25,15.09,1.86,22.52.85,10.31,1.71,20.5,2.72,30.65q.42,4.23.88,8.44c.15,1.33.29,2.65.45,4,0,.13,0,.27,0,.4q.93,8,2.06,16c1.61,11.38,3.6,22.82,6.16,34.44h0" style="fill:none;stroke:#263238;stroke-miterlimit:10"></path><path d="M461.23,284.11c-6.28-29.65-9.08-62-12.38-94.08h0" style="fill:none;stroke:#263238;stroke-miterlimit:10"></path><path d="M410.41,375.8c-4-23.84-6.69-48.26-9-72.85q-.33-3.39-.63-6.78c-1.14-12.58-2.18-25.19-3.24-37.78l-.6-7.13q-.65-7.66-1.32-15.31l0-.32c-.88-10-1.92-20.38-3.14-31-.08-.75-.17-1.5-.26-2.25s-.16-1.42-.25-2.13l-.18-1.54-.09-.75c-.18-1.52-.37-3.05-.56-4.58a.71.71,0,0,1,0-.14c-3.12-25-7.16-50.7-12.24-74.4-.21-1-.43-2-.65-3-1.35-6.18-2.78-12.22-4.28-18.06-.26-1-.51-2-.78-3-.12-.48-.25-1-.38-1.44s-.2-.76-.31-1.14c-.27-1-.54-2-.82-3" style="fill:none;stroke:#263238;stroke-miterlimit:10"></path><path d="M130.76,92.23h18.71v22.3l-21-14.16M151,89.23H131.59l-.83,3h18.71v22.3l-21-14.16-.85,3,18.43,12.43H124.42c-.24,1-.48,2-.7,3H151a1.86,1.86,0,0,0,.33,0l.08,0,.23-.08.1-.06.19-.13.09-.07a1.47,1.47,0,0,0,.36-.52,2.27,2.27,0,0,1,.09-.28,1.36,1.36,0,0,0,0-.29V90.73A1.51,1.51,0,0,0,151,89.23Z" style="fill:none;stroke:#263238;stroke-miterlimit:10"></path><path d="M194.8,117.92a1,1,0,0,1,0-.14s0-.09,0-.14a1.36,1.36,0,0,0,0-.29V90.73a1.5,1.5,0,0,0-1.5-1.5H154a1.43,1.43,0,0,0-.29,0l-.15,0-.13,0-.14.07-.11.06a.69.69,0,0,0-.13.11l-.1.08a1.51,1.51,0,0,0-.33.49,2.27,2.27,0,0,1-.09.28,1.46,1.46,0,0,0,0,.29v26.62a1.5,1.5,0,0,0,1.5,1.5h39.44a1.86,1.86,0,0,0,.34,0l.08,0a.92.92,0,0,0,.23-.09l.1,0,.19-.13.08-.07A1.5,1.5,0,0,0,194.8,117.92Zm-2.89-3.39-33-22.3h33Zm-36.44-21,33,22.29h-33Z" style="fill:none;stroke:#263238;stroke-miterlimit:10"></path><path d="M237.24,117.92a2.27,2.27,0,0,1,.09-.28,1.36,1.36,0,0,0,0-.29V90.73a1.5,1.5,0,0,0-1.5-1.5H196.41a1.36,1.36,0,0,0-.29,0l-.15,0-.13,0-.14.07-.12.06-.13.11-.09.08a1.37,1.37,0,0,0-.33.49s0,.09-.05.14,0,.09,0,.14a1.5,1.5,0,0,0,0,.29v26.62a1.5,1.5,0,0,0,1.5,1.5h39.45a1.86,1.86,0,0,0,.33,0l.09,0a1,1,0,0,0,.22-.09.31.31,0,0,0,.1,0l.19-.13.09-.07A1.47,1.47,0,0,0,237.24,117.92Zm-2.88-3.39-33-22.3h33Zm-36.45-21,33,22.29h-33Z" style="fill:none;stroke:#263238;stroke-miterlimit:10"></path><path d="M279.69,117.92a.57.57,0,0,0,0-.14s0-.09,0-.14a1.36,1.36,0,0,0,0-.29V90.73a1.5,1.5,0,0,0-1.5-1.5H238.85l-.29,0-.14,0-.13,0-.15.07-.11.06a.69.69,0,0,0-.13.11l-.1.08a1.51,1.51,0,0,0-.33.49,777700997932.92,777700997932.92,0,0,1-.08.28,1.5,1.5,0,0,0,0,.29v26.62a1.5,1.5,0,0,0,1.5,1.5H278.3a1.86,1.86,0,0,0,.34,0l.08,0a.92.92,0,0,0,.23-.09l.1,0,.19-.13a.27.27,0,0,0,.08-.07A1.5,1.5,0,0,0,279.69,117.92Zm-2.89-3.39-33-22.3h33Zm-36.44-21,33,22.29h-33Z" style="fill:none;stroke:#263238;stroke-miterlimit:10"></path><path d="M322.13,117.92s0-.09.05-.14,0-.09,0-.14a1.36,1.36,0,0,0,0-.29V90.73a1.5,1.5,0,0,0-1.5-1.5H281.3a1.36,1.36,0,0,0-.29,0l-.15,0-.13,0-.14.07-.12.06-.13.11-.09.08a1.37,1.37,0,0,0-.33.49s0,.09-.05.14,0,.09,0,.14a1.5,1.5,0,0,0,0,.29v26.62a1.5,1.5,0,0,0,1.5,1.5h39.45a1.86,1.86,0,0,0,.33,0l.09,0a1.09,1.09,0,0,0,.23-.09l.09,0,.19-.13.09-.07A1.47,1.47,0,0,0,322.13,117.92Zm-2.88-3.39-33-22.3h33Zm-36.45-21,33,22.29h-33Z" style="fill:none;stroke:#263238;stroke-miterlimit:10"></path><path d="M364.58,117.92a.57.57,0,0,0,0-.14.57.57,0,0,0,0-.14,1.36,1.36,0,0,0,0-.29V90.73a1.5,1.5,0,0,0-1.5-1.5H323.74a1.33,1.33,0,0,0-.28,0,.66.66,0,0,0-.15,0l-.13,0-.14.07-.12.06a.69.69,0,0,0-.13.11l-.1.08a1.51,1.51,0,0,0-.33.49.57.57,0,0,0,0,.14s0,.09,0,.14a1.5,1.5,0,0,0,0,.29v26.62a1.5,1.5,0,0,0,1.5,1.5h39.44a1.86,1.86,0,0,0,.34,0l.08,0a.92.92,0,0,0,.23-.09l.1,0,.19-.13a.27.27,0,0,0,.08-.07A1.5,1.5,0,0,0,364.58,117.92Zm-2.89-3.39-33-22.3h33Zm-36.44-21,33,22.29h-33Z" style="fill:none;stroke:#263238;stroke-miterlimit:10"></path><path d="M374,97.79l-6.26-4.23v22.29h10.54m-5.44-22.48-1.69-1.14h1.38m-.82-3h-5.47a1.43,1.43,0,0,0-.29,0l-.15,0-.13,0-.14.07-.12.06-.13.11-.09.08a1.51,1.51,0,0,0-.33.49,2.27,2.27,0,0,1-.09.28,1.5,1.5,0,0,0,0,.29v26.62a1.5,1.5,0,0,0,1.5,1.5h12.69" style="fill:none;stroke:#263238;stroke-miterlimit:10"></path><circle cx="142.41" cy="117.22" r="9.7" style="fill:#fff;stroke:#263238;stroke-linecap:round;stroke-linejoin:round"></circle><circle cx="142.47" cy="117.22" r="7.63" style="fill:#fff;stroke:#263238;stroke-linecap:round;stroke-linejoin:round"></circle><circle cx="162.01" cy="117.22" r="9.7" style="fill:#fff;stroke:#263238;stroke-linecap:round;stroke-linejoin:round"></circle><circle cx="162.07" cy="117.22" r="7.63" style="fill:#fff;stroke:#263238;stroke-linecap:round;stroke-linejoin:round"></circle><circle cx="181.31" cy="117.22" r="9.7" style="fill:#fff;stroke:#263238;stroke-linecap:round;stroke-linejoin:round"></circle><circle cx="181.36" cy="117.22" r="7.63" style="fill:#fff;stroke:#263238;stroke-linecap:round;stroke-linejoin:round"></circle><circle cx="320.03" cy="117.22" r="9.7" style="fill:#fff;stroke:#263238;stroke-linecap:round;stroke-linejoin:round"></circle><circle cx="320.08" cy="117.22" r="7.63" style="fill:#fff;stroke:#263238;stroke-linecap:round;stroke-linejoin:round"></circle><circle cx="339.63" cy="117.22" r="9.7" style="fill:#fff;stroke:#263238;stroke-linecap:round;stroke-linejoin:round"></circle><circle cx="339.69" cy="117.22" r="7.63" style="fill:#fff;stroke:#263238;stroke-linecap:round;stroke-linejoin:round"></circle><circle cx="358.92" cy="117.22" r="9.7" style="fill:#fff;stroke:#263238;stroke-linecap:round;stroke-linejoin:round"></circle><circle cx="358.98" cy="117.22" r="7.63" style="fill:#fff;stroke:#263238;stroke-linecap:round;stroke-linejoin:round"></circle><path d="M378.7,385c-3.83,0-7.67,0-11.5.08" style="fill:none;stroke:#263238;stroke-miterlimit:10"></path><path d="M355.46,385.27l5.18-.1" style="fill:none;stroke:#263238;stroke-miterlimit:10"></path><path d="M290.13,385q29.76.06,59.52.23" style="fill:none;stroke:#263238;stroke-miterlimit:10"></path><path d="M220,385q31.6,0,63.21,0" style="fill:none;stroke:#263238;stroke-miterlimit:10"></path><path d="M128,385.14q42.53-.13,85-.14" style="fill:none;stroke:#263238;stroke-miterlimit:10"></path></g><g id="freepik--Plant--inject-84"><path d="M94.41,427H73.58l-2.32-4.37a76.2,76.2,0,0,1-8.84-34.44l0-1.05h43.19a76.08,76.08,0,0,1-9.48,36.78Z" style="fill:#fff;stroke:#263238;stroke-linecap:round;stroke-linejoin:round"></path><path d="M49.39,388a22.75,22.75,0,0,0,13,3.95,3.41,3.41,0,0,0,1.61-.31,1.67,1.67,0,0,0,.86-1.47,2.37,2.37,0,0,0-1.14-1.6,38,38,0,0,0-9.46-5.14,36.39,36.39,0,0,0-5.15-1.49c-1.4-.29-2.9-1-4.31-1C44.56,384,47.33,386.56,49.39,388Z" style="fill:#407BFF"></path><path d="M105,370.41a11.42,11.42,0,0,1,7.69-4.44.66.66,0,0,1,.5.08.9.9,0,0,1,.22.71,18.36,18.36,0,0,1-3.31,10.93,8.51,8.51,0,0,1-3.79,3.2,4.19,4.19,0,0,1-3.46-.21c-1.06-.6-.86-1.46-.76-2.64A14.59,14.59,0,0,1,105,370.41Z" style="fill:#407BFF"></path><path d="M105,370.41a11.42,11.42,0,0,1,7.69-4.44.66.66,0,0,1,.5.08.9.9,0,0,1,.22.71,18.36,18.36,0,0,1-3.31,10.93,8.51,8.51,0,0,1-3.79,3.2,4.19,4.19,0,0,1-3.46-.21c-1.06-.6-.86-1.46-.76-2.64A14.59,14.59,0,0,1,105,370.41Z" style="opacity:0.2"></path><path d="M86.1,374a10.78,10.78,0,0,0,2.55-6.47,11.3,11.3,0,0,0-1.6-5.72,29.33,29.33,0,0,0-3.45-4.63,100.72,100.72,0,0,0-.35,13.23,6.9,6.9,0,0,0,.49,2.73,1.93,1.93,0,0,0,2,1.26Z" style="fill:#407BFF"></path><path d="M91.69,360.54A17.12,17.12,0,0,0,87,371.47a8.71,8.71,0,0,0,.67,4.28,3.4,3.4,0,0,0,3.15,2.12c1.34-.14,2.38-1.38,3.14-2.65,1.26-2.1,2.79-5.11,2.08-7.7A13.78,13.78,0,0,0,91.69,360.54Z" style="fill:#407BFF"></path><path d="M91.69,360.54A17.12,17.12,0,0,0,87,371.47a8.71,8.71,0,0,0,.67,4.28,3.4,3.4,0,0,0,3.15,2.12c1.34-.14,2.38-1.38,3.14-2.65,1.26-2.1,2.79-5.11,2.08-7.7A13.78,13.78,0,0,0,91.69,360.54Z" style="opacity:0.1"></path><path d="M100,375.13c2.22-2.08,3.13-5.55,3-8.81a35.82,35.82,0,0,0-2-9.48,39.15,39.15,0,0,0-5.22,9.9,13.25,13.25,0,0,0-.95,4.27,5.56,5.56,0,0,0,1.36,4,2.69,2.69,0,0,0,3.59.38l-.37.22Z" style="fill:#407BFF"></path><g style="opacity:0.2"><path d="M100,375.13c2.22-2.08,3.13-5.55,3-8.81a35.82,35.82,0,0,0-2-9.48,39.15,39.15,0,0,0-5.22,9.9,13.25,13.25,0,0,0-.95,4.27,5.56,5.56,0,0,0,1.36,4,2.69,2.69,0,0,0,3.59.38l-.37.22Z"></path></g><path d="M105,362.32c.56,4,1.1,8.16.42,12.17s-2.84,7.93-6.21,9.34c-1.4.59-3.21.6-4.15-.72a4.05,4.05,0,0,1-.41-3.26,11.19,11.19,0,0,1,1.45-3c2.69-4.37,8.29-15,8.86-14.53Z" style="fill:#407BFF"></path><path d="M105,362.32c.56,4,1.1,8.16.42,12.17s-2.84,7.93-6.21,9.34c-1.4.59-3.21.6-4.15-.72a4.05,4.05,0,0,1-.41-3.26,11.19,11.19,0,0,1,1.45-3c2.69-4.37,8.29-15,8.86-14.53Z" style="fill:#407BFF"></path><g style="opacity:0.1"><path d="M105,362.32c.56,4,1.1,8.16.42,12.17s-2.84,7.93-6.21,9.34c-1.4.59-3.21.6-4.15-.72a4.05,4.05,0,0,1-.41-3.26,11.19,11.19,0,0,1,1.45-3c2.69-4.37,8.29-15,8.86-14.53Z"></path></g><path d="M94.61,367.77a24.4,24.4,0,0,1,2.88,7.74,13.56,13.56,0,0,1-1,8.2c-1.25,2.44-3.57,4.24-6,4.26a5.68,5.68,0,0,1-4.84-3c-1.15-2-.31-3.85.56-5.83C88.12,374.69,91.42,371.16,94.61,367.77Z" style="fill:#407BFF"></path><path d="M119.36,375.22a4.66,4.66,0,0,1,.2,3.92,9.78,9.78,0,0,1-2.17,3.22A26.78,26.78,0,0,1,94.88,391a2.16,2.16,0,0,1-1.79-.92,2,2,0,0,1,.56-2.25,4.59,4.59,0,0,1,2.09-.86,35.7,35.7,0,0,0,11.77-5.37C111.15,379.06,115.48,377.32,119.36,375.22Z" style="fill:#407BFF"></path><path d="M119.36,375.22a4.66,4.66,0,0,1,.2,3.92,9.78,9.78,0,0,1-2.17,3.22A26.78,26.78,0,0,1,94.88,391a2.16,2.16,0,0,1-1.79-.92,2,2,0,0,1,.56-2.25,4.59,4.59,0,0,1,2.09-.86,35.7,35.7,0,0,0,11.77-5.37C111.15,379.06,115.48,377.32,119.36,375.22Z" style="opacity:0.1"></path><path d="M105,375.21c.61-.89,1.36-1.93,2.35-1.81.76.08,1.33.86,1.64,1.65,1.29,3.23-.25,7.18-2.71,9.36s-5.61,3-8.66,3.78l-3.14.79c-1.24.32-3.74-.1-2.63-2.07.75-1.32,3.24-2.07,4.39-2.85A32.52,32.52,0,0,0,105,375.21Z" style="fill:#407BFF"></path><path d="M117.93,388a22.75,22.75,0,0,1-13,3.95,3.41,3.41,0,0,1-1.61-.31,1.65,1.65,0,0,1-.86-1.47,2.37,2.37,0,0,1,1.14-1.6,38,38,0,0,1,9.46-5.14,36,36,0,0,1,5.15-1.49c1.4-.29,2.9-1,4.31-1C122.76,384,120,386.56,117.93,388Z" style="fill:#407BFF"></path><path d="M105.3,400A20,20,0,0,0,116,395.5c.6-.47,1.26-1.23,1-2a1.78,1.78,0,0,0-1.24-.94c-3.64-1.22-7.36-2.45-11.15-2.28a12.86,12.86,0,0,0-5.22,1.34c-1.28.65-3.93,2.24-4.3,4s2.93,3.08,4.15,3.55A14,14,0,0,0,105.3,400Z" style="fill:#407BFF"></path><path d="M105.3,400A20,20,0,0,0,116,395.5c.6-.47,1.26-1.23,1-2a1.78,1.78,0,0,0-1.24-.94c-3.64-1.22-7.36-2.45-11.15-2.28a12.86,12.86,0,0,0-5.22,1.34c-1.28.65-3.93,2.24-4.3,4s2.93,3.08,4.15,3.55A14,14,0,0,0,105.3,400Z" style="opacity:0.1"></path><path d="M90.13,390.51a33.32,33.32,0,0,1,11.39-.62,6.42,6.42,0,0,1,2.73.79,3.17,3.17,0,0,1,1.55,2.53,3.33,3.33,0,0,1-1.4,2.67,7.86,7.86,0,0,1-2.69,1.09c-2.74.72-5.55,1.42-8.34,1a8.56,8.56,0,0,1-5.8-3.18C85.85,392.36,88.12,391,90.13,390.51Z" style="fill:#407BFF"></path><path d="M90.13,390.51a33.32,33.32,0,0,1,11.39-.62,6.42,6.42,0,0,1,2.73.79,3.17,3.17,0,0,1,1.55,2.53,3.33,3.33,0,0,1-1.4,2.67,7.86,7.86,0,0,1-2.69,1.09c-2.74.72-5.55,1.42-8.34,1a8.56,8.56,0,0,1-5.8-3.18C85.85,392.36,88.12,391,90.13,390.51Z" style="fill:#fff;opacity:0.1"></path><path d="M78.72,390.47a5.65,5.65,0,0,1-1.86-2.05,2.71,2.71,0,0,1,.17-2.77c.87-1,5.7-2.47,6.91-2.75a4.77,4.77,0,0,1,3,.64q2.07,1,4.09,2.07A6.36,6.36,0,0,1,92.89,387a2.81,2.81,0,0,1,.65,2.31,3.33,3.33,0,0,1-2.37,2.1,21.56,21.56,0,0,1-8,1.27C83.35,392.62,79.92,391.39,78.72,390.47Z" style="fill:#407BFF"></path><g style="opacity:0.1"><path d="M78.72,390.47a5.65,5.65,0,0,1-1.86-2.05,2.71,2.71,0,0,1,.17-2.77c.87-1,5.7-2.47,6.91-2.75a4.77,4.77,0,0,1,3,.64q2.07,1,4.09,2.07A6.36,6.36,0,0,1,92.89,387a2.81,2.81,0,0,1,.65,2.31,3.33,3.33,0,0,1-2.37,2.1,21.56,21.56,0,0,1-8,1.27C83.35,392.62,79.92,391.39,78.72,390.47Z"></path></g><path d="M88.51,392.38a4.56,4.56,0,0,1,2.88,2.41,3.48,3.48,0,0,1-.56,3.82,4.22,4.22,0,0,1-2.53.84l-3.3.32a2.68,2.68,0,0,1-2-.34c-.77-.62-.83-1.86-.83-2.93a9,9,0,0,1,.37-3,2.14,2.14,0,0,1,2.39-1.63A25.83,25.83,0,0,1,88.51,392.38Z" style="fill:#407BFF"></path><path d="M62.37,370.41a11.42,11.42,0,0,0-7.7-4.44.64.64,0,0,0-.49.08.9.9,0,0,0-.22.71,18.36,18.36,0,0,0,3.31,10.93,8.51,8.51,0,0,0,3.79,3.2,4.19,4.19,0,0,0,3.46-.21c1-.6.86-1.46.75-2.64A14.5,14.5,0,0,0,62.37,370.41Z" style="fill:#407BFF"></path><path d="M62.37,370.41a11.42,11.42,0,0,0-7.7-4.44.64.64,0,0,0-.49.08.9.9,0,0,0-.22.71,18.36,18.36,0,0,0,3.31,10.93,8.51,8.51,0,0,0,3.79,3.2,4.19,4.19,0,0,0,3.46-.21c1-.6.86-1.46.75-2.64A14.5,14.5,0,0,0,62.37,370.41Z" style="opacity:0.2"></path><path d="M81.22,374a10.71,10.71,0,0,1-2.55-6.47,11.39,11.39,0,0,1,1.59-5.72,30,30,0,0,1,3.46-4.63,102.48,102.48,0,0,1,.35,13.23,6.9,6.9,0,0,1-.49,2.73,1.94,1.94,0,0,1-2,1.26Z" style="fill:#407BFF"></path><path d="M75.63,360.54a17.12,17.12,0,0,1,4.67,10.93,8.83,8.83,0,0,1-.67,4.28,3.41,3.41,0,0,1-3.15,2.12c-1.34-.14-2.38-1.38-3.14-2.65-1.26-2.1-2.79-5.11-2.08-7.7A13.78,13.78,0,0,1,75.63,360.54Z" style="fill:#407BFF"></path><path d="M75.63,360.54a17.12,17.12,0,0,1,4.67,10.93,8.83,8.83,0,0,1-.67,4.28,3.41,3.41,0,0,1-3.15,2.12c-1.34-.14-2.38-1.38-3.14-2.65-1.26-2.1-2.79-5.11-2.08-7.7A13.78,13.78,0,0,1,75.63,360.54Z" style="opacity:0.1"></path><path d="M67.36,375.13c-2.22-2.08-3.13-5.55-3-8.81a35.82,35.82,0,0,1,2-9.48,39.15,39.15,0,0,1,5.22,9.9,13.25,13.25,0,0,1,1,4.27,5.6,5.6,0,0,1-1.36,4,2.69,2.69,0,0,1-3.59.38l.37.22Z" style="fill:#407BFF"></path><g style="opacity:0.2"><path d="M67.36,375.13c-2.22-2.08-3.13-5.55-3-8.81a35.82,35.82,0,0,1,2-9.48,39.15,39.15,0,0,1,5.22,9.9,13.25,13.25,0,0,1,1,4.27,5.6,5.6,0,0,1-1.36,4,2.69,2.69,0,0,1-3.59.38l.37.22Z"></path></g><path d="M62.29,362.32c-.56,4-1.1,8.16-.42,12.17s2.84,7.93,6.21,9.34c1.4.59,3.21.6,4.15-.72a4.05,4.05,0,0,0,.41-3.26,11.19,11.19,0,0,0-1.45-3c-2.69-4.37-8.3-15-8.87-14.53Z" style="fill:#407BFF"></path><path d="M62.29,362.32c-.56,4-1.1,8.16-.42,12.17s2.84,7.93,6.21,9.34c1.4.59,3.21.6,4.15-.72a4.05,4.05,0,0,0,.41-3.26,11.19,11.19,0,0,0-1.45-3c-2.69-4.37-8.3-15-8.87-14.53Z" style="fill:#407BFF"></path><g style="opacity:0.1"><path d="M62.29,362.32c-.56,4-1.1,8.16-.42,12.17s2.84,7.93,6.21,9.34c1.4.59,3.21.6,4.15-.72a4.05,4.05,0,0,0,.41-3.26,11.19,11.19,0,0,0-1.45-3c-2.69-4.37-8.3-15-8.87-14.53Z"></path></g><path d="M72.71,367.77a24.16,24.16,0,0,0-2.88,7.74,13.56,13.56,0,0,0,1,8.2c1.25,2.44,3.57,4.24,6,4.26a5.68,5.68,0,0,0,4.84-3c1.15-2,.31-3.85-.56-5.83C79.2,374.69,75.9,371.16,72.71,367.77Z" style="fill:#407BFF"></path><path d="M48,375.54a4.53,4.53,0,0,0-.2,3.83,9.47,9.47,0,0,0,2.13,3.16A26.2,26.2,0,0,0,71.94,391a2.13,2.13,0,0,0,1.76-.9,2,2,0,0,0-.55-2.2A4.53,4.53,0,0,0,71.1,387a35,35,0,0,1-11.53-5.26C56,379.3,51.76,377.59,48,375.54Z" style="fill:#407BFF"></path><path d="M48,375.54a4.53,4.53,0,0,0-.2,3.83,9.47,9.47,0,0,0,2.13,3.16A26.2,26.2,0,0,0,71.94,391a2.13,2.13,0,0,0,1.76-.9,2,2,0,0,0-.55-2.2A4.53,4.53,0,0,0,71.1,387a35,35,0,0,1-11.53-5.26C56,379.3,51.76,377.59,48,375.54Z" style="opacity:0.1"></path><path d="M61.63,374.94c-.59-.88-1.33-1.9-2.3-1.79-.75.09-1.3.85-1.62,1.63-1.26,3.17.25,7.05,2.67,9.19s5.51,2.95,8.5,3.71l3.08.78c1.22.3,3.67-.11,2.58-2-.73-1.3-3.18-2-4.31-2.8A32.3,32.3,0,0,1,61.63,374.94Z" style="fill:#407BFF"></path><path d="M62,400a20,20,0,0,1-10.7-4.53c-.6-.47-1.27-1.23-1-2a1.78,1.78,0,0,1,1.24-.94c3.64-1.22,7.35-2.45,11.14-2.28a12.86,12.86,0,0,1,5.23,1.34c1.27.65,3.93,2.24,4.3,4s-2.93,3.08-4.16,3.55A13.94,13.94,0,0,1,62,400Z" style="fill:#407BFF"></path><path d="M62,400a20,20,0,0,1-10.7-4.53c-.6-.47-1.27-1.23-1-2a1.78,1.78,0,0,1,1.24-.94c3.64-1.22,7.35-2.45,11.14-2.28a12.86,12.86,0,0,1,5.23,1.34c1.27.65,3.93,2.24,4.3,4s-2.93,3.08-4.16,3.55A13.94,13.94,0,0,1,62,400Z" style="opacity:0.1"></path><path d="M77.19,390.51a33.32,33.32,0,0,0-11.39-.62,6.51,6.51,0,0,0-2.74.79,3.18,3.18,0,0,0-1.54,2.53,3.33,3.33,0,0,0,1.4,2.67A7.74,7.74,0,0,0,65.6,397c2.75.72,5.56,1.42,8.35,1a8.56,8.56,0,0,0,5.8-3.18C81.47,392.36,79.2,391,77.19,390.51Z" style="fill:#407BFF"></path><path d="M77.19,390.51a33.32,33.32,0,0,0-11.39-.62,6.51,6.51,0,0,0-2.74.79,3.18,3.18,0,0,0-1.54,2.53,3.33,3.33,0,0,0,1.4,2.67A7.74,7.74,0,0,0,65.6,397c2.75.72,5.56,1.42,8.35,1a8.56,8.56,0,0,0,5.8-3.18C81.47,392.36,79.2,391,77.19,390.51Z" style="fill:#fff;opacity:0.1"></path><path d="M88.6,390.47a5.74,5.74,0,0,0,1.86-2.05,2.69,2.69,0,0,0-.18-2.77c-.86-1-5.69-2.47-6.9-2.75a4.77,4.77,0,0,0-3,.64q-2.07,1-4.09,2.07A6.23,6.23,0,0,0,74.43,387a2.81,2.81,0,0,0-.65,2.31,3.31,3.31,0,0,0,2.37,2.1,21.52,21.52,0,0,0,8,1.27C84,392.62,87.4,391.39,88.6,390.47Z" style="fill:#407BFF"></path><g style="opacity:0.1"><path d="M88.6,390.47a5.74,5.74,0,0,0,1.86-2.05,2.69,2.69,0,0,0-.18-2.77c-.86-1-5.69-2.47-6.9-2.75a4.77,4.77,0,0,0-3,.64q-2.07,1-4.09,2.07A6.23,6.23,0,0,0,74.43,387a2.81,2.81,0,0,0-.65,2.31,3.31,3.31,0,0,0,2.37,2.1,21.52,21.52,0,0,0,8,1.27C84,392.62,87.4,391.39,88.6,390.47Z"></path></g><path d="M78.81,392.38a4.56,4.56,0,0,0-2.88,2.41,3.48,3.48,0,0,0,.56,3.82,4.22,4.22,0,0,0,2.53.84l3.29.32a2.7,2.7,0,0,0,2-.34c.77-.62.83-1.86.83-2.93a9,9,0,0,0-.37-3,2.14,2.14,0,0,0-2.39-1.63A25.61,25.61,0,0,0,78.81,392.38Z" style="fill:#407BFF"></path><path d="M84.24,368.8a2.42,2.42,0,0,0-.58-.36.38.38,0,0,1,.2,0,.3.3,0,0,1,.11,0h0a.19.19,0,0,1,.1.08l.09.12a.33.33,0,0,1,0,.12A.05.05,0,0,1,84.24,368.8Z" style="fill:#407BFF"></path><path d="M84.24,368.8h0a2.42,2.42,0,0,0-.58-.36.38.38,0,0,1,.2,0,.3.3,0,0,1,.11,0h0a.19.19,0,0,1,.1.08l.09.12a.33.33,0,0,1,0,.12A.05.05,0,0,1,84.24,368.8Z" style="fill:#407BFF;opacity:0.1"></path><path d="M88.35,380a9,9,0,0,1-1.71,3,3.84,3.84,0,0,1-2.85,1.39h-.26A3.86,3.86,0,0,1,80.67,383a9.36,9.36,0,0,1-1.7-3,9.92,9.92,0,0,1-.71-4.63,8,8,0,0,1,2.32-4.45c.31,0,1.27-1.13,1.57-1.36l.09-.05a.36.36,0,0,1,.09-.08c.2-.17.48-.41.75-.62l.37-.25.1-.05.11-.05a2.42,2.42,0,0,1,.58.36h0c.37.27.74.61.92.74s1.27,1.36,1.58,1.36a8,8,0,0,1,2.31,4.45A9.66,9.66,0,0,1,88.35,380Z" style="fill:#407BFF"></path><path d="M83.66,368.44l-.11.05-.1.05-.37.25c.09-.23.21-.37.38-.39A.38.38,0,0,1,83.66,368.44Z" style="fill:#407BFF"></path><g style="opacity:0.2"><path d="M88.35,380a9,9,0,0,1-1.71,3,3.84,3.84,0,0,1-2.85,1.39h-.26A3.86,3.86,0,0,1,80.67,383a9.36,9.36,0,0,1-1.7-3,9.92,9.92,0,0,1-.71-4.63,8,8,0,0,1,2.32-4.45c.31,0,1.27-1.13,1.57-1.36s.57-.48.93-.75a2.35,2.35,0,0,1,.58-.35,2.24,2.24,0,0,1,.58.36c.37.27.74.61.92.74s1.27,1.36,1.58,1.36a8,8,0,0,1,2.31,4.45A9.66,9.66,0,0,1,88.35,380Z" style="fill:#fff"></path><path d="M83.66,368.44a2.35,2.35,0,0,0-.58.35c.09-.23.21-.37.38-.39A.38.38,0,0,1,83.66,368.44Z" style="fill:#fff"></path></g><path d="M84.24,368.8a2.24,2.24,0,0,0-.58-.36.38.38,0,0,1,.2,0C84,368.42,84.15,368.56,84.24,368.8Z" style="fill:#fff;opacity:0.1"></path></g><g id="freepik--Monitor--inject-84"><path d="M200.15,422.34h104.4v3.29c0,.84-1.09,1.52-2.44,1.52H202.59c-1.35,0-2.44-.68-2.44-1.52Z" style="fill:#263238"></path><path d="M287.24,398.22V355.28h-69.8v42.94c0,5.93-11.48,17.53-16.84,22.63a1.45,1.45,0,0,0,1,2.5H303.1a1.45,1.45,0,0,0,1-2.5C298.74,415.75,287.24,404.15,287.24,398.22Z" style="fill:#bfbfbf;stroke:#263238;stroke-linecap:round;stroke-linejoin:round"></path><line x1="274.13" y1="399.17" x2="283.16" y2="399.17" style="fill:none;stroke:#263238;stroke-linecap:round;stroke-linejoin:round"></line><line x1="221.61" y1="399.17" x2="267.48" y2="399.17" style="fill:none;stroke:#263238;stroke-linecap:round;stroke-linejoin:round"></line><g style="opacity:0.5"><path d="M210.45,413.19l20-11.88,2.37.23s-25.19,17.35-20,17.83,16.87.95,16.87.95l-22.95.82a1.47,1.47,0,0,1-1.16-2.44Z" style="fill:#fff"></path><path d="M218.52,401.07c0-.71,67.25,0,67.25,0s.48,3.56,2.38,5.23-2.38-3.57-5.47-3.57-60.59-1.42-62.25-.23-13.55,14.73-13.55,14.73Z" style="fill:#fff"></path><path d="M220.19,369.47l-.22,24.1a2.49,2.49,0,0,0,2.49,2.51h62.36V384.44s-.95,7.6-3.32,8.31-55.79,2.65-57,.24C221.14,386.57,220.19,369.47,220.19,369.47Z" style="fill:#fff"></path></g><path d="M287.44,367.8l-.23-.05a143.54,143.54,0,0,0-69.87.05h0V355.45h70.1Z" style="fill:#263238"></path><rect x="111.67" y="197.74" width="280.79" height="157.95" rx="1.59" style="fill:#fff"></rect><path d="M394.72,194.61a5.93,5.93,0,0,0-2.49-1.22,6.07,6.07,0,0,0-1.35-.15H113.26a6.09,6.09,0,0,0-6.09,6.08V354.1a6,6,0,0,0,1.56,4,6.07,6.07,0,0,0,4.53,2H390.88A6.09,6.09,0,0,0,397,354.1V199.32A6.08,6.08,0,0,0,394.72,194.61ZM392,354.1a1.08,1.08,0,0,1-1.08,1.08H113.26a1.08,1.08,0,0,1-1.09-1.08V199.32a1.09,1.09,0,0,1,1.09-1.08H390.88a1.08,1.08,0,0,1,1.08,1.08Z" style="fill:#263238"></path><rect x="112.29" y="326.1" width="279.7" height="29.1" style="fill:#407BFF"></rect><path d="M190.27,311.3s35.9-22.74,166.28-29.11h35s.17,51.68.17,58.37C391.75,340.56,152.11,353.79,190.27,311.3Z" style="fill:#407BFF"></path><path d="M190.28,311.3s36-22.74,166.56-29.11h35.1s.17,51.68.17,58.37C392.11,340.56,152.05,353.79,190.28,311.3Z" style="fill:#fff;opacity:0.30000000000000004"></path><path d="M390.66,260.43c-.7-7.13-8.1-11.54-14.65-11.1s-12.43,4.3-18.22,7.67-22.57,18.9-29,17.61c-11.61-2.33-18.16-17.53-29.72-20.08-14.76-3.26-29.52,15.71-43.23,8.88-8.38-4.17-11.66-16.39-20.24-20-7.83-3.32-16.37,1.93-23.17,7.31s-14.53,11.54-22.77,9.8c-34-7.2-38.09-30.1-62.31-28.57-6,.38-12.47,4.34-15,10.11V350.21l80.68-2.8c-8.07-4.62-9.55-7.15-2.71-14.79,0,0,35.79-22.74,165.76-29.11H391S393.52,260.29,390.66,260.43Z" style="fill:#407BFF"></path><path d="M390.66,260.43c-.7-7.13-8.1-11.54-14.66-11.1s-12.42,4.29-18.22,7.67-22.56,18.9-29,17.61c-11.6-2.33-18.15-17.53-29.72-20.09-14.76-3.25-29.52,15.72-43.23,8.89-8.37-4.17-11.65-16.39-20.24-20-7.83-3.32-16.36,1.93-23.16,7.31s-14.53,11.54-22.77,9.8c-34-7.2-38.09-30.1-62.31-28.57-6,.38-12.47,4.33-15,10.1V350.21l80.68-2.8c-8.06-4.62-9.55-7.15-2.7-14.79a42.62,42.62,0,0,1,5-2.53C208.92,324,252.73,308.57,356,303.51H391s0-.31.05-.87C391.35,296.52,393.28,260.3,390.66,260.43Z" style="fill:#fff;opacity:0.4"></path><path d="M391,302.64c0,.56-.05.87-.05.87H356c-103.29,5.06-147.1,20.47-160.73,26.58-9.43-4.54-12.32-10.64-5-18.79,0,0,35.79-22.74,165.76-29.11H391S391,291.45,391,302.64Z" style="fill:#fff;opacity:0.30000000000000004"></path><path d="M112.29,350.49l279.09-9.64s-6.06-10.63-35.1-13.48c-54.95-5.39-234.09-28.74-244-30Z" style="fill:#407BFF"></path><path d="M112.29,350.49l279.09-9.64s-6.06-10.63-35.1-13.48c-54.95-5.39-234.09-28.74-244-30Z" style="fill:#fff;opacity:0.2"></path><path d="M288.55,288.33s30.53-9.46,54-46.35c11.72-18.45,23.83-11.9,33-.75C385.61,253.49,391,269.56,391,286.05v1.19S377.36,304.78,288.55,288.33Z" style="fill:#407BFF"></path><path d="M291.63,287.17s27.45-8.3,50.89-45.19c11.72-18.45,23.83-11.9,33-.75C385.61,253.49,391,269.56,391,286.05v1.19s-2.5,3.8-13.37,5.85C361.86,296.05,333.16,298.89,291.63,287.17Z" style="fill:#fff;opacity:0.2"></path><path d="M350,233.41s-4.19,7.29,2.44,6.34c2.7-.38.06,8.78-4,19.77-8.23,22.17-18.38,34.77-39.38,32.22-7.57-.92-33.5-2.35-33.5-2.35h0c26.51-12.36,50.69-30.79,71.14-52.95a19.75,19.75,0,0,1,2.69-2.43Z" style="fill:#407BFF"></path><path d="M350,233.41s-4.19,7.29,2.44,6.34c2.7-.38.06,8.78-4,19.77-8.23,22.17-18.38,34.77-39.38,32.22-7.57-.92-33.5-2.35-33.5-2.35h0c26.51-12.36,50.69-30.79,71.14-52.95a19.75,19.75,0,0,1,2.69-2.43Z" style="fill:#fff;opacity:0.6000000000000001"></path><path d="M339.18,294.94h0a44.75,44.75,0,0,0,16.2-26.16l.79-3.67,3.95,30.26A200,200,0,0,1,339.18,294.94Z" style="fill:#fff;opacity:0.4"></path><g style="opacity:0.30000000000000004"><path d="M394.72,194.61l-2.25,7-.51,1.58-13.54,42L377,249.46l-10.57,32.77-4.15,12.86,0,.06-2.68,8.32-7.53,23.33-.46,1.43L347.19,342l-.07.22-1.78,5.49-.84,2.62-.59,1.83-1,3-.16.5-1.45,4.5v0H308.77v0l1.44-4.5.16-.5,1.48-4.62.6-1.88,1.71-5.34h0l.32-1,.09-.28,6-18.74,5.76-18h0l3.43-10.68.13-.42,2.65-8.27.74-2.32v-.05l3.68-11.5,12-37.41,0-.1,11.64-36.33.16-.5,1.39-4.35h30A5.93,5.93,0,0,1,394.72,194.61Z" style="fill:#fff;opacity:0.4"></path></g><path d="M194.41,193.39l-1.4,4.35-.16.5-18.41,57.08L159,303.23l-6.82,21.17-7.91,24.52-.1.3-1.72,5.33-.2.63-.16.5-1.45,4.5H113.26a6.07,6.07,0,0,1-4.53-2l2.94-9.19.5-1.56.47-1.47.12-.38v0l.12-.37,2.4-7.48,12.32-38.48,19.86-62L160,198.24l.16-.5,1.39-4.35Z" style="fill:#fff;opacity:0.2"></path><polygon points="107.32 339.89 142.26 231.53 144 226.12 147.05 216.68 149.85 207.99 154.56 193.39 146.09 193.39 138.63 216.68 135.61 226.12 133.88 231.53 107.32 314.45 107.32 339.89" style="fill:#fff;opacity:0.30000000000000004"></polygon></g><g id="freepik--Sparkles--inject-84"><path d="M207.88,153.5l1.43,5.55a12.61,12.61,0,0,0,7.77,8.68l3.09,1.16-3.32,1.25a12.61,12.61,0,0,0-7.67,8.29l-1.72,5.89-1.65-5.71a12.62,12.62,0,0,0-8-8.39l-3.8-1.33,3.56-1.25a12.62,12.62,0,0,0,8.06-8.77l1.38-5.37A.43.43,0,0,1,207.88,153.5Z" style="fill:#407BFF"></path><path d="M302.69,153.5l1.43,5.55a12.6,12.6,0,0,0,7.78,8.68l3.08,1.16-3.32,1.25a12.61,12.61,0,0,0-7.67,8.29l-1.71,5.89-1.66-5.71a12.62,12.62,0,0,0-8-8.39l-3.8-1.33,3.56-1.25a12.6,12.6,0,0,0,8.06-8.77l1.38-5.37A.43.43,0,0,1,302.69,153.5Z" style="fill:#407BFF"></path><path d="M255.66,137.2l1.78,6.9a15.66,15.66,0,0,0,9.65,10.77l3.83,1.44-4.12,1.55a15.64,15.64,0,0,0-9.52,10.29l-2.13,7.32-2.06-7.09A15.68,15.68,0,0,0,243.21,158l-4.72-1.65,4.42-1.55a15.66,15.66,0,0,0,10-10.9l1.71-6.66A.53.53,0,0,1,255.66,137.2Z" style="fill:#407BFF"></path><path d="M207.88,153.5l1.43,5.55a12.61,12.61,0,0,0,7.77,8.68l3.09,1.16-3.32,1.25a12.61,12.61,0,0,0-7.67,8.29l-1.72,5.89-1.65-5.71a12.62,12.62,0,0,0-8-8.39l-3.8-1.33,3.56-1.25a12.62,12.62,0,0,0,8.06-8.77l1.38-5.37A.43.43,0,0,1,207.88,153.5Z" style="fill:#fff;opacity:0.5"></path><path d="M302.69,153.5l1.43,5.55a12.6,12.6,0,0,0,7.78,8.68l3.08,1.16-3.32,1.25a12.61,12.61,0,0,0-7.67,8.29l-1.71,5.89-1.66-5.71a12.62,12.62,0,0,0-8-8.39l-3.8-1.33,3.56-1.25a12.6,12.6,0,0,0,8.06-8.77l1.38-5.37A.43.43,0,0,1,302.69,153.5Z" style="fill:#fff;opacity:0.5"></path><path d="M255.66,137.2l1.78,6.9a15.66,15.66,0,0,0,9.65,10.77l3.83,1.44-4.12,1.55a15.64,15.64,0,0,0-9.52,10.29l-2.13,7.32-2.06-7.09A15.68,15.68,0,0,0,243.21,158l-4.72-1.65,4.42-1.55a15.66,15.66,0,0,0,10-10.9l1.71-6.66A.53.53,0,0,1,255.66,137.2Z" style="fill:#fff;opacity:0.5"></path></g><g id="freepik--Character--inject-84"><path d="M447.36,416.6l-3.33-9-8.55,1.19,3.08,8.32S443.55,421.36,447.36,416.6Z" style="fill:#fff;stroke:#263238;stroke-linecap:round;stroke-linejoin:round"></path><path d="M438.26,415.75a17.49,17.49,0,0,0,0,7.06c.63,2.26,2.56,4.2,4.52,3.69.45-.11.88-.35,1.34-.42a4.28,4.28,0,0,1,2.5.76c4.86,2.52,17.7,1.75,18.71,1.24a1.64,1.64,0,0,0,.41-.31,1.8,1.8,0,0,0-.58-3c-5.82-2.9-5.46-2.2-15-7.89-1.73-1-2.77-.58-3.66.31a5.18,5.18,0,0,1-8.17-1.46Z" style="fill:#fff;stroke:#263238;stroke-linecap:round;stroke-linejoin:round"></path><path d="M431.51,409.26a57.71,57.71,0,0,1-2.73,13.06c-.32,1-.32,2.47.7,2.5a1.62,1.62,0,0,0,1-.43,27.09,27.09,0,0,0,8.64-11.47,4,4,0,0,0,.27-3,4.19,4.19,0,0,0-.86-1.11C435.66,405.84,432,402.84,431.51,409.26Z" style="fill:#fff;stroke:#263238;stroke-linecap:round;stroke-linejoin:round"></path><path d="M434.5,294.6s3.88,9.2,4.69,11.33,19.64,34.28,21.27,56.21c.31,4.17-21.77,47.65-21.77,47.65l-3.47-2.58s7.69-41.18,7.47-44.7-13.57-31-13.57-31-8.37-7.89-11.19-16.2Z" style="fill:#263238"></path><path d="M432.4,316.19s-3.61,5.91-3.73,6.81,9.38,51.67,12.53,63.54q3,11.44,4.87,23.28a4.55,4.55,0,0,1-.14,4.72c-1.62,2.2-7.1,3.11-7.94.86s-10.19-14.57-13.37-26.07-7.26-30.55-10-37.84a245.46,245.46,0,0,1-9.3-28.45c-3.13-12.19-6.24-25.3-6.24-25.3a47.13,47.13,0,0,0,5.66.85,48,48,0,0,0,13.42-.72c10.29-2.11,15.34-7.93,15.34-7.93s1.64,6.92,2.11,8.28Z" style="fill:#263238"></path><path d="M458.3,366.12a13.86,13.86,0,0,1-4.34,3.76" style="fill:none;stroke:#bfbfbf;stroke-linecap:round;stroke-linejoin:round"></path><path d="M459.84,363.55a14.23,14.23,0,0,1-.67,1.28" style="fill:none;stroke:#bfbfbf;stroke-linecap:round;stroke-linejoin:round"></path><path d="M425.25,300.48c2,4.6,3.55,11.06,2.57,16a11.21,11.21,0,0,1-1.29,2.46" style="fill:none;stroke:#bfbfbf;stroke-linecap:round;stroke-linejoin:round"></path><path d="M409.57,303.41c0,2.43-.14,6.44-.95,8.73a9.31,9.31,0,0,1-4.55,5.43" style="fill:none;stroke:#bfbfbf;stroke-linecap:round;stroke-linejoin:round"></path><path d="M422.81,305.58c2.42,7.64,4.07,15.2,7.7,28.13" style="fill:none;stroke:#bfbfbf;stroke-linecap:round;stroke-linejoin:round"></path><path d="M421.5,301.66c.21.6.42,1.19.62,1.78" style="fill:none;stroke:#fff;stroke-linecap:round;stroke-linejoin:round"></path><path d="M442.27,360.39a34.34,34.34,0,0,0,4.74,8.7" style="fill:none;stroke:#bfbfbf;stroke-linecap:round;stroke-linejoin:round"></path><path d="M443.5,363.29a39.53,39.53,0,0,0,3.77,13.55" style="fill:none;stroke:#bfbfbf;stroke-linecap:round;stroke-linejoin:round"></path><path d="M405.92,316.33c5.18,17.7,9.88,31,14.24,44.34" style="fill:none;stroke:#bfbfbf;stroke-linecap:round;stroke-linejoin:round"></path><path d="M421.26,365.4c-.11-.57-.24-1.14-.36-1.71" style="fill:none;stroke:#bfbfbf;stroke-linecap:round;stroke-linejoin:round"></path><path d="M440.64,416.4c-1.57-2.68-12.9-23.45-15.24-32.55-1.55-6.05-2.75-10.34-3.75-16.3" style="fill:none;stroke:#bfbfbf;stroke-linecap:round;stroke-linejoin:round"></path><line x1="439.99" y1="378.98" x2="444.15" y2="398.87" style="fill:none;stroke:#bfbfbf;stroke-linecap:round;stroke-linejoin:round"></line><path d="M419.83,239l-6.11-5.87L403,227.77s-7.34,6.36-8.07,13.94,9.54,38.4,10.52,38.15-5.63,27.39-5.63,27.39,28.86,7.58,35.46-3.67l1.47-3.66L432.8,285S419.83,240.25,419.83,239Z" style="fill:#fff;stroke:#263238;stroke-linecap:round;stroke-linejoin:round"></path><path d="M402.19,215.6a20.39,20.39,0,0,1,.86,10.22c-1,5.69,6.63,8.27,8.42,9s2.74-1.52,3.23-4.36,1-10.83,1-10.83S408.13,211.05,402.19,215.6Z" style="fill:#fff;stroke:#263238;stroke-linecap:round;stroke-linejoin:round"></path><path d="M403.3,223.61s6.19,13.47,12,2.24S405.18,227.18,403.3,223.61Z" style="fill:#263238"></path><path d="M419.51,218.12c-1.87,6.86-4.71,10.11-8.51,10-3.47-.06-8.78-4.48-10.19-10h0l-3.31-3.47a2.82,2.82,0,0,1-.72-2.54,2.22,2.22,0,0,1,1.86-1.64h.1a2.16,2.16,0,0,1,1.23.36q-.19-3.76,0-7.52c1.32-5.57,4.1-9.72,10.15-9s10.34,5.11,10.08,7.56c-.21,1.9-.61,6.94-1.11,12.13C418.92,215.5,419.92,216.61,419.51,218.12Z" style="fill:#fff;stroke:#263238;stroke-linecap:round;stroke-linejoin:round"></path><path d="M418.61,209.6s-3.48-2.55-4,3.3c-.1,1.15,1.65,3.29,1.65,3.29s-.87,1.57-1.87,1.37" style="fill:#fff;stroke:#263238;stroke-linecap:round;stroke-linejoin:round"></path><path d="M410.81,210s-1.72-1.59-3.2-1.13a3.92,3.92,0,0,0-2,1.1" style="fill:#fff;stroke:#263238;stroke-linecap:round;stroke-linejoin:round"></path><path d="M409,213.08c0,.72-.3,1.3-.68,1.3s-.7-.57-.71-1.3.3-1.29.69-1.29S409,212.38,409,213.08Z" style="fill:#263238"></path><path d="M417,212.64c0,.72-.3,1.3-.69,1.3s-.7-.58-.7-1.29.3-1.3.68-1.3S417,211.93,417,212.64Z" style="fill:#263238"></path><path d="M434.42,256.77a43.25,43.25,0,0,0-6.84.07c.07-.36-2.72-3.35-6-7-.61-3.81-1.37-13.62.67-10.24l12.08,17Z" style="fill:#407BFF;stroke:#263238;stroke-linecap:round;stroke-linejoin:round"></path><path d="M400.76,226.06l.33.21c2.81,1.78,19.94,12.22,20.62,12.67s13.53,45.32,14.27,53.15l1,3.42-.7,1.91a.94.94,0,0,1-1.79-.07L418.61,240Z" style="fill:#407BFF"></path><g style="clip-path:url(#freepik--clip-path--inject-84)"><path d="M421.54,247.77a10.36,10.36,0,0,0,1,3.25,2.88,2.88,0,0,0,2.83,1.51c-.28-3.61-.59-7.31-2.07-10.62-.6-1.32-5.28-8-5.86-4.42-.19,1.21,1.79,3.63,2.27,4.74A29.91,29.91,0,0,1,421.54,247.77Z" style="opacity:0.2"></path><path d="M435.88,298.29c1.44-1.68,1.17-4.2.75-6.38a125.65,125.65,0,0,0-3.07-12.67c-.55-1.86-2.47-9.39-3.6-3.89-.72,3.46.81,8.26,1.68,11.6C431.94,288.12,436.12,298,435.88,298.29Z" style="opacity:0.2"></path></g><path d="M400.76,226.06l.33.21c2.81,1.78,19.94,12.22,20.62,12.67s13.53,45.32,14.27,53.15l1,3.42-.7,1.91a.94.94,0,0,1-1.79-.07L418.61,240Z" style="fill:none;stroke:#263238;stroke-linecap:round;stroke-linejoin:round"></path><path d="M400.76,226.06s-10.52,9.05-8.31,25.68l10,29.59s-5.62,23.23-4.64,23.48,27.87,5.38,30.07-3.92,2.21-27.87,1-34.72S414.7,235,414.33,234.74C414.45,234.74,399.82,226.15,400.76,226.06Z" style="fill:#407BFF"></path><g style="clip-path:url(#freepik--clip-path-2--inject-84)"><g style="opacity:0.2"><path d="M410,278.14a2.48,2.48,0,0,1,2.52,4.28,13.25,13.25,0,0,1,2.26,10.36,30.82,30.82,0,0,1-4,10.09c-.71,1.25-1.35,3-.22,3.91a3,3,0,0,0,2.06.35c4.91-.35,10.37-1,13.6-4.69,2.29-2.65,2.92-6.31,3.27-9.79a99.75,99.75,0,0,0,.06-20,129.38,129.38,0,0,0-15.62-8.37S413.37,273.79,410,278.14Z"></path></g><g style="opacity:0.2"><path d="M406.26,230.07a4.49,4.49,0,0,1,.34,1.56c.37,2.09,2.61,3.17,4.29,4.46,2.57,2,4.11,5,5.78,7.78s3.7,5.61,6.71,6.81c-2.22-4.71-4.47-9.46-7.71-13.53s-7.62-7.45-12.72-8.49Z"></path></g></g><path d="M400.76,226.06s-10.52,9.05-8.31,25.68l10,29.59s-5.62,23.23-4.64,23.48,27.87,5.38,30.07-3.92,2.21-27.87,1-34.72S414.7,235,414.33,234.74C414.45,234.74,399.82,226.15,400.76,226.06Z" style="fill:none;stroke:#263238;stroke-linecap:round;stroke-linejoin:round"></path><path d="M440.38,265c-.62,2-4.85,4.81-7.92,6.63a6,6,0,0,1-6.22,0l-12-7.33s-17.12-12-17.12-21.27,7.34-9.79,7.34-9.79,4.65-.49,7.82,5.38c1.59,2.93,5.55,7.5,9,11.34,3.25,3.62,6,6.61,6,7-.18,0-.21,0-.05,0s.05,0,.05,0a43.14,43.14,0,0,1,6.83-.07,4.29,4.29,0,0,1,.7.11C437,257.36,441.36,261.77,440.38,265Z" style="fill:#407BFF"></path><g style="clip-path:url(#freepik--clip-path-3--inject-84)"><path d="M422,264.38a2.74,2.74,0,0,0,1.83-2.12c.33,1.52.65,3,1,4.55l1.14-2.39a2.53,2.53,0,0,0,2.87.91,2.31,2.31,0,0,0,2,1.48,5.39,5.39,0,0,1,2.7-6.29c.81-.39,1.78-.63,2.25-1.39.86-1.38-.78-3.13-2.39-3.27s-3.17.62-4.78.77-3.61-.76-3.58-2.38l-.82-.5L412,238.19c-1-1.31-6.27-6.66-5.68-2.73.4,2.62,4.61,6.92,6,9.31C413.3,246.33,422.38,264.26,422,264.38Z" style="opacity:0.2"></path></g><path d="M440.38,265c-.62,2-4.85,4.81-7.92,6.63a6,6,0,0,1-6.22,0l-12-7.33s-17.12-12-17.12-21.27,7.34-9.79,7.34-9.79,4.65-.49,7.82,5.38c1.59,2.93,5.55,7.5,9,11.34,3.25,3.62,6,6.61,6,7-.18,0-.21,0-.05,0s.05,0,.05,0a43.14,43.14,0,0,1,6.83-.07,4.29,4.29,0,0,1,.7.11C437,257.36,441.36,261.77,440.38,265Z" style="fill:none;stroke:#263238;stroke-linecap:round;stroke-linejoin:round"></path><path d="M407.67,283.06a42.92,42.92,0,0,0,9.51-1.19" style="fill:none;stroke:#263238;stroke-linecap:round;stroke-linejoin:round"></path><path d="M405.41,281a34.31,34.31,0,0,0,11-6.78" style="fill:none;stroke:#263238;stroke-linecap:round;stroke-linejoin:round"></path><path d="M426,264.53c.2-1.37.4-2.73.61-4.09.06-.4.25-.92.66-.9s.51.4.61.73l1.69,5.44" style="fill:none;stroke:#263238;stroke-linecap:round;stroke-linejoin:round"></path><path d="M396.26,251a18.89,18.89,0,0,0,7.61,4.26" style="fill:none;stroke:#263238;stroke-linecap:round;stroke-linejoin:round"></path><path d="M398.68,227.86c3.85,1.74,12.32,7,14.22,11.95" style="fill:none;stroke:#263238;stroke-linecap:round;stroke-linejoin:round"></path><path d="M427.22,256.84s0,0-.05,0S427,256.86,427.22,256.84Z" style="fill:none;stroke:#263238;stroke-linecap:round;stroke-linejoin:round"></path><path d="M427.22,256.84s0,0-.05,0S427,256.86,427.22,256.84Z" style="fill:none;stroke:#263238;stroke-linecap:round;stroke-linejoin:round"></path><path d="M427.61,256.49a1.44,1.44,0,0,0-1.05-2.16c-.57-1.18-.89-1.61-2.25-1.13-.72.06-1.37,1.13-.12,1.36a9.18,9.18,0,0,1,1.42.18c.35.31-.71.36-.11,1.31.33.54,1.43.36,1.41.36C427.08,256.41,427.61,256.49,427.61,256.49Z" style="fill:#fff;stroke:#263238;stroke-linecap:round;stroke-linejoin:round"></path><path d="M423.34,202.32a8.85,8.85,0,0,1-6.49,1.53,53,53,0,0,1-6.66-1.51c-1.25-.3-5.07-1.36-6.17-.33-.95.89-.31,4.63-.32,5.9a2.2,2.2,0,0,1-.2,1.11c-.36.63-1.22.75-1.72,1.28-.67.72-.45,1.87-.13,2.79a22.63,22.63,0,0,0,3.44,6.38c-1.08.85-2.78.14-3.5-1a10.49,10.49,0,0,1-1-4,17.11,17.11,0,0,0-1-3.85l.21-8.12c0,.49,2,.63,2.24.58-.72-.77-1.88-.36-2.52-1.39a4.6,4.6,0,0,1-.12-3.33,13.38,13.38,0,0,1,1.83-4.81,7.28,7.28,0,0,1,6.09-2.57,22.75,22.75,0,0,1,5.69,1.89,48.21,48.21,0,0,1,6.19-.35,8,8,0,0,1,5.63,3.71C426,198.2,425.12,200.9,423.34,202.32Z" style="fill:#263238;stroke:#263238;stroke-linecap:round;stroke-linejoin:round"></path><path d="M402.81,198.82a5.74,5.74,0,0,1,2.71-6.19,5.76,5.76,0,0,0-.69,4.52,2.28,2.28,0,0,1,1.27-1.52l-.06,1.31a1.44,1.44,0,0,0,1.24-.86c.05.39.09.77.14,1.16.21-.27.41-.54.62-.8a3.58,3.58,0,0,0,.57,2.73,4.48,4.48,0,0,1,2.77-3.93,3.9,3.9,0,0,0-.37,3.23,1.07,1.07,0,0,0,.68-1.15,2.76,2.76,0,0,0,.42,1.86c.15-.31.29-.63.43-1a2.28,2.28,0,0,0,.9,2.2,4.18,4.18,0,0,1,3.26-5,4,4,0,0,0,2.14,6.88" style="fill:none;stroke:#bfbfbf;stroke-linecap:round;stroke-linejoin:round"></path><path d="M412.22,223.84l-.25,0c-1.4-.16-2.54-1.54-3.26-2.68v0a.46.46,0,0,1-.08-.52.5.5,0,0,1,.47-.28h0c1.53,0,4.19.13,5.64.2a.5.5,0,0,1,.44.31.53.53,0,0,1,0,.46C414.37,222.93,413.34,223.84,412.22,223.84Z" style="fill:#263238"></path><path d="M409.1,220.82c1.49,0,4.09.13,5.62.2h0c-.45,1-1.3,2.31-2.49,2.31H412c-1.22-.14-2.27-1.46-2.9-2.47l0,0m0-1a1,1,0,0,0-.8,1.6c.77,1.23,2,2.72,3.61,2.9l.31,0c1.33,0,2.53-1,3.38-2.87a1,1,0,0,0,0-.81,1,1,0,0,0-.88-.64c-1.16-.05-4-.18-5.65-.2Z" style="fill:#263238"></path><path d="M414.74,221.61c-1.15-.06-4-.18-5.61-.2a.51.51,0,0,1-.42-.24,12.53,12.53,0,0,1-.66-1.22.5.5,0,0,1,.45-.71l6.69.35a.49.49,0,0,1,.38.21.5.5,0,0,1,.07.43,8,8,0,0,1-.43,1.09.49.49,0,0,1-.45.29Z" style="fill:#fff"></path><path d="M408.5,219.74l6.66.35a7.54,7.54,0,0,1-.4,1c-1.53-.07-4.13-.18-5.62-.2a12.42,12.42,0,0,1-.64-1.17m0-1a1,1,0,0,0-.83.44,1,1,0,0,0-.08,1,13.16,13.16,0,0,0,.7,1.27,1,1,0,0,0,.84.48c1.58,0,4.43.14,5.58.2h.05a1,1,0,0,0,.9-.57,7.28,7.28,0,0,0,.46-1.18,1,1,0,0,0-.91-1.27l-6.66-.35Z" style="fill:#263238"></path></g></svg>